<?xml version="1.0" standalone="no"?>
<!DOCTYPE svg PUBLIC "-//W3C//DTD SVG 20010904//EN"
 "http://www.w3.org/TR/2001/REC-SVG-20010904/DTD/svg10.dtd">
<svg version="1.0" xmlns="http://www.w3.org/2000/svg"
 width="512.000000pt" height="512.000000pt" viewBox="0 0 512.000000 512.000000"
 preserveAspectRatio="xMidYMid meet">

<g transform="translate(0.000000,512.000000) scale(0.100000,-0.100000)"
fill="#000000" stroke="none">
<path d="M2389 5105 c-15 -8 -39 -36 -54 -62 -40 -69 -55 -83 -86 -83 -99 0
-498 -110 -629 -173 -78 -38 -87 -112 -18 -145 24 -11 37 -8 125 27 119 47
239 84 359 111 49 11 92 20 96 20 4 0 -48 -91 -115 -202 -98 -165 -121 -210
-121 -239 l1 -36 -91 -37 c-247 -100 -515 -301 -688 -514 -205 -255 -329 -531
-390 -872 -20 -115 -17 -450 6 -575 51 -278 167 -550 330 -770 123 -165 354
-373 531 -478 36 -21 45 -31 36 -40 -18 -18 -13 -75 9 -97 11 -11 33 -20 49
-20 35 0 50 12 366 294 132 117 228 196 240 196 32 -1 98 -35 129 -69 27 -28
28 -32 14 -48 -8 -10 -232 -263 -498 -562 -409 -460 -489 -546 -528 -563 -151
-67 -305 96 -232 246 13 28 67 83 165 169 138 123 145 131 145 166 0 72 -67
97 -131 48 l-34 -26 -60 41 c-173 118 -389 322 -511 484 -215 285 -352 602
-415 960 -31 172 -34 549 -6 715 97 575 401 1080 852 1416 167 124 158 116
158 151 0 41 -32 75 -71 75 -56 0 -287 -179 -453 -350 -335 -347 -543 -759
-631 -1250 -31 -173 -33 -567 -5 -738 72 -428 239 -805 503 -1131 99 -123 297
-312 422 -404 l102 -74 -70 -63 c-97 -90 -125 -149 -125 -268 0 -78 4 -97 28
-147 89 -182 326 -242 491 -126 25 18 100 95 167 170 66 76 127 138 133 138 7
0 48 -9 92 -20 169 -44 305 -62 510 -67 282 -8 477 15 719 84 50 14 95 26 100
27 6 0 71 -66 145 -149 162 -180 161 -179 230 -213 47 -23 68 -27 140 -27 73
0 93 4 142 28 72 35 140 110 168 185 18 46 21 73 18 137 -6 108 -36 163 -147
266 -52 49 -81 82 -76 88 6 5 55 45 110 89 378 303 663 734 790 1198 103 374
113 779 29 1152 -114 511 -417 992 -829 1322 -256 204 -595 370 -908 445 -54
12 -101 25 -103 28 -3 3 2 19 11 37 21 41 12 82 -27 115 l-30 25 -276 0 c-221
-1 -282 -4 -303 -15z m461 -140 c0 -3 -49 -104 -110 -225 -60 -121 -110 -231
-110 -244 0 -40 37 -74 194 -178 83 -55 154 -103 158 -107 4 -4 -162 -175
-368 -381 l-376 -375 193 290 c208 313 219 336 174 385 -11 12 -123 74 -250
137 -126 63 -231 116 -233 118 -2 2 285 487 334 563 14 22 18 22 204 22 105 0
190 -2 190 -5z m268 -206 c286 -73 595 -231 834 -427 106 -86 283 -272 365
-382 242 -324 387 -690 434 -1100 15 -132 6 -439 -16 -570 -82 -484 -305 -909
-651 -1239 -95 -91 -249 -216 -281 -228 -12 -5 -308 251 -308 267 0 4 32 29
70 55 209 142 396 336 527 547 257 414 333 921 209 1405 -30 117 -65 212 -123
331 -62 127 -90 162 -129 162 -34 0 -79 -39 -79 -67 0 -11 26 -70 58 -133 321
-634 209 -1382 -282 -1898 -73 -77 -188 -171 -289 -237 -76 -49 -90 -55 -105
-43 -71 55 -200 179 -190 182 7 3 31 10 53 16 22 7 76 30 119 51 361 179 583
581 511 924 -43 202 -199 363 -397 410 -136 32 -302 14 -457 -49 -147 -59
-324 -207 -420 -351 l-48 -73 -279 280 c-285 287 -324 318 -394 318 -69 0
-109 -32 -357 -281 -209 -211 -243 -250 -253 -287 -12 -46 -7 -90 16 -132 7
-14 167 -179 356 -367 272 -271 355 -348 402 -373 32 -16 64 -30 71 -30 36 0
15 -27 -102 -131 -71 -62 -138 -121 -150 -132 -22 -19 -22 -19 -85 16 -179
100 -382 279 -507 447 -257 348 -372 782 -317 1200 84 625 505 1143 1099 1349
l88 31 170 -85 c117 -59 168 -89 163 -98 -4 -6 -115 -174 -247 -371 -253 -380
-260 -394 -224 -449 17 -27 69 -47 122 -47 79 0 83 3 587 507 l487 487 65 -28
c152 -65 326 -184 483 -330 103 -97 134 -108 172 -60 35 45 27 69 -46 146
-188 194 -447 356 -713 444 -90 30 -138 54 -220 108 -58 38 -106 70 -108 71
-2 2 29 66 67 144 l71 141 32 -7 c18 -3 84 -19 146 -34z m-945 -2306 c169
-170 323 -330 342 -358 42 -61 65 -146 65 -240 1 -77 22 -153 61 -210 13 -20
317 -297 675 -615 447 -399 656 -591 667 -615 54 -112 -19 -244 -144 -261 -94
-13 -97 -10 -524 472 -538 608 -716 804 -776 858 -65 58 -120 76 -274 85 -184
11 -167 -1 -547 379 -220 219 -328 333 -328 347 0 12 16 36 35 55 l35 34 278
-277 c237 -237 281 -277 306 -277 40 0 76 35 76 74 0 26 -36 66 -277 308
l-277 278 39 40 c21 22 44 40 49 40 6 0 135 -124 286 -275 190 -190 283 -275
297 -275 36 0 76 42 76 79 0 29 -28 61 -277 310 l-277 277 40 37 c23 20 47 37
53 37 7 0 151 -138 321 -307z m1289 168 c162 -62 243 -192 242 -386 -1 -161
-56 -297 -179 -446 -118 -143 -349 -269 -494 -269 -37 0 -49 8 -148 98 -64 57
-116 114 -127 137 -14 27 -22 73 -27 145 -8 117 -24 178 -64 246 -27 46 -27
47 -10 83 65 138 241 302 390 366 139 59 303 69 417 26z m-766 -1528 l87 -98
-49 -7 c-70 -9 -304 -9 -304 0 0 8 169 202 175 202 2 0 43 -44 91 -97z m358
-402 c80 -91 144 -166 142 -168 -9 -10 -154 -45 -261 -64 -151 -27 -447 -36
-604 -20 -110 12 -305 47 -327 60 -7 3 48 73 141 177 l153 170 68 -7 c105 -12
318 -9 419 6 50 7 97 12 107 11 9 0 82 -75 162 -165z"/>
<path d="M1525 3365 c-49 -48 -16 -125 52 -125 37 0 73 38 73 77 0 32 -42 73
-75 73 -14 0 -37 -11 -50 -25z"/>
<path d="M3201 3320 c-161 -39 -216 -247 -94 -362 104 -99 267 -67 335 66 30
59 22 151 -18 208 -49 71 -143 108 -223 88z m91 -167 c10 -9 18 -27 18 -40 0
-28 -33 -63 -60 -63 -11 0 -29 9 -40 20 -55 55 24 135 82 83z"/>
<path d="M3671 3234 c-12 -15 -21 -33 -21 -40 0 -26 23 -62 47 -73 34 -16 47
-14 77 10 33 26 36 79 6 109 -30 30 -83 27 -109 -6z"/>
<path d="M1243 3174 c-58 -21 -118 -91 -133 -154 -23 -97 35 -204 132 -245 76
-31 162 -12 224 51 51 51 68 99 61 172 -14 135 -156 223 -284 176z m121 -166
c20 -29 20 -41 -2 -68 -36 -44 -102 -20 -102 36 0 52 74 75 104 32z"/>
<path d="M3580 2983 c-51 -19 -68 -85 -30 -123 25 -25 81 -26 103 -2 8 9 19
29 22 44 6 22 1 33 -23 58 -30 30 -43 34 -72 23z"/>
<path d="M2576 2829 c-54 -42 -19 -129 51 -129 66 0 94 89 42 133 -28 23 -60
22 -93 -4z"/>
</g>
</svg>
