<svg xmlns="http://www.w3.org/2000/svg" xmlns:xlink="http://www.w3.org/1999/xlink" width="1080" zoomAndPan="magnify" viewBox="0 0 810 809.999993" height="1080" preserveAspectRatio="xMidYMid meet" version="1.0"><defs><g/><clipPath id="234ff56896"><path d="M 81 81 L 729 81 L 729 729 L 81 729 Z M 81 81 " clip-rule="nonzero"/></clipPath><clipPath id="791375df26"><path d="M 405 81 C 226.058594 81 81 226.058594 81 405 C 81 583.941406 226.058594 729 405 729 C 583.941406 729 729 583.941406 729 405 C 729 226.058594 583.941406 81 405 81 Z M 405 81 " clip-rule="nonzero"/></clipPath><clipPath id="d13e4514bd"><path d="M 197.1875 197.1875 L 612.8125 197.1875 L 612.8125 612.8125 L 197.1875 612.8125 Z M 197.1875 197.1875 " clip-rule="nonzero"/></clipPath><clipPath id="b1b36e3fcb"><path d="M 405 197.1875 C 290.230469 197.1875 197.1875 290.230469 197.1875 405 C 197.1875 519.769531 290.230469 612.8125 405 612.8125 C 519.769531 612.8125 612.8125 519.769531 612.8125 405 C 612.8125 290.230469 519.769531 197.1875 405 197.1875 Z M 405 197.1875 " clip-rule="nonzero"/></clipPath><clipPath id="af22c775a6"><path d="M 197.1875 197.1875 L 612.6875 197.1875 L 612.6875 612.6875 L 197.1875 612.6875 Z M 197.1875 197.1875 " clip-rule="nonzero"/></clipPath><clipPath id="63be590211"><path d="M 404.996094 197.1875 C 290.226562 197.1875 197.1875 290.226562 197.1875 404.996094 C 197.1875 519.765625 290.226562 612.804688 404.996094 612.804688 C 519.765625 612.804688 612.804688 519.765625 612.804688 404.996094 C 612.804688 290.226562 519.765625 197.1875 404.996094 197.1875 Z M 404.996094 197.1875 " clip-rule="nonzero"/></clipPath><clipPath id="cbe2c12a09"><path d="M 305 267.539062 L 506.277344 267.539062 L 506.277344 542.789062 L 305 542.789062 Z M 305 267.539062 " clip-rule="nonzero"/></clipPath><clipPath id="16b736352c"><path d="M 112.710938 420.332031 L 159.960938 420.332031 L 159.960938 467.582031 L 112.710938 467.582031 Z M 112.710938 420.332031 " clip-rule="nonzero"/></clipPath><clipPath id="e75d88b739"><path d="M 649.789062 420.332031 L 697.039062 420.332031 L 697.039062 467.582031 L 649.789062 467.582031 Z M 649.789062 420.332031 " clip-rule="nonzero"/></clipPath></defs><rect x="-81" width="972" fill="#ffffff" y="-80.999999" height="971.999992" fill-opacity="1"/><rect x="-81" width="972" fill="#fefefe" y="-80.999999" height="971.999992" fill-opacity="1"/><g clip-path="url(#234ff56896)"><g clip-path="url(#791375df26)"><path fill="#f6f6f6" d="M 81 81 L 729 81 L 729 729 L 81 729 Z M 81 81 " fill-opacity="1" fill-rule="nonzero"/><path stroke-linecap="butt" transform="matrix(0.75, 0, 0, 0.75, 80.999999, 81.000016)" fill="none" stroke-linejoin="miter" d="M 432.000023 -0.0000212333 C 193.411469 -0.0000212333 0.000000766667 193.411447 0.000000766667 432.000001 C 0.000000766667 670.588554 193.411469 864.000022 432.000023 864.000022 C 670.588576 864.000022 864.000044 670.588554 864.000044 432.000001 C 864.000044 193.411447 670.588576 -0.0000212333 432.000023 -0.0000212333 Z M 432.000023 -0.0000212333 " stroke="#000000" stroke-width="8" stroke-opacity="1" stroke-miterlimit="4"/></g></g><g clip-path="url(#d13e4514bd)"><g clip-path="url(#b1b36e3fcb)"><path fill="#f4c524" d="M 197.1875 197.1875 L 612.8125 197.1875 L 612.8125 612.8125 L 197.1875 612.8125 Z M 197.1875 197.1875 " fill-opacity="1" fill-rule="nonzero"/></g></g><g clip-path="url(#af22c775a6)"><g clip-path="url(#63be590211)"><path stroke-linecap="butt" transform="matrix(0.75, 0, 0, 0.75, 197.188338, 197.188354)" fill="none" stroke-linejoin="miter" d="M 277.077022 -0.00113877 C 124.050973 -0.00113877 -0.00111677 124.050951 -0.00111677 277.077 C -0.00111677 430.10305 124.050973 554.155139 277.077022 554.155139 C 430.103072 554.155139 554.155161 430.10305 554.155161 277.077 C 554.155161 124.050951 430.103072 -0.00113877 277.077022 -0.00113877 Z M 277.077022 -0.00113877 " stroke="#000000" stroke-width="8" stroke-opacity="1" stroke-miterlimit="4"/></g></g><g clip-path="url(#cbe2c12a09)"><path fill="#3c3c3b" d="M 506.132812 374.792969 C 506.132812 374.789062 506.132812 374.789062 506.132812 374.78125 C 506.125 374.546875 506.132812 374.3125 506.121094 374.078125 C 506.109375 373.6875 506.082031 373.289062 506.058594 372.898438 C 506.058594 372.894531 506.058594 372.894531 506.058594 372.890625 C 506.050781 372.691406 506.042969 372.496094 506.027344 372.300781 C 505.976562 371.707031 505.917969 371.109375 505.839844 370.515625 C 505.757812 369.90625 505.660156 369.289062 505.542969 368.671875 C 502.84375 354.539062 497.222656 341.046875 491.554688 328.570312 C 481 305.363281 459.265625 277.996094 429.898438 270.835938 C 425.308594 269.71875 420.78125 268.886719 416.34375 268.347656 C 411.90625 267.808594 407.5625 267.554688 403.347656 267.597656 C 402.289062 267.609375 401.238281 267.636719 400.199219 267.683594 C 399.386719 267.71875 398.582031 267.769531 397.78125 267.824219 C 397.554688 267.839844 397.328125 267.859375 397.105469 267.878906 C 396.464844 267.929688 395.828125 267.988281 395.195312 268.054688 C 395.019531 268.074219 394.839844 268.089844 394.664062 268.109375 C 393.882812 268.199219 393.105469 268.292969 392.332031 268.402344 C 392.15625 268.425781 391.980469 268.457031 391.808594 268.480469 C 391.1875 268.566406 390.578125 268.667969 389.960938 268.773438 C 389.746094 268.808594 389.53125 268.84375 389.316406 268.882812 C 388.554688 269.019531 387.792969 269.164062 387.046875 269.320312 C 386.449219 269.449219 385.847656 269.585938 385.253906 269.722656 C 385.144531 269.75 385.039062 269.777344 384.933594 269.804688 C 384.335938 269.953125 383.742188 270.109375 383.148438 270.273438 C 382.863281 270.351562 382.566406 270.429688 382.28125 270.503906 C 381.417969 270.753906 380.5625 271.011719 379.71875 271.292969 C 379.707031 271.296875 379.699219 271.296875 379.6875 271.304688 C 379.660156 271.3125 379.640625 271.320312 379.613281 271.332031 C 378.644531 271.648438 377.6875 271.980469 376.738281 272.316406 C 376.367188 272.449219 376.003906 272.582031 375.640625 272.710938 C 375.042969 272.925781 374.445312 273.148438 373.855469 273.367188 C 373.613281 273.457031 373.375 273.550781 373.140625 273.640625 C 372.929688 273.726562 372.722656 273.800781 372.511719 273.882812 C 372.019531 274.078125 371.523438 274.269531 371.035156 274.46875 C 370.890625 274.523438 370.753906 274.582031 370.609375 274.644531 C 370.265625 274.789062 369.914062 274.929688 369.570312 275.074219 C 369.140625 275.25 368.71875 275.425781 368.296875 275.605469 C 368.246094 275.628906 368.203125 275.652344 368.152344 275.667969 C 367.675781 275.871094 367.195312 276.082031 366.722656 276.289062 C 366.359375 276.449219 365.996094 276.613281 365.632812 276.773438 C 365.074219 277.027344 364.519531 277.285156 363.960938 277.542969 C 363.664062 277.6875 363.367188 277.824219 363.070312 277.96875 C 362.472656 278.261719 361.871094 278.546875 361.277344 278.84375 C 361.070312 278.949219 360.859375 279.058594 360.648438 279.164062 C 359.980469 279.5 359.316406 279.839844 358.660156 280.1875 C 358.605469 280.214844 358.550781 280.246094 358.496094 280.273438 C 357.417969 280.847656 356.363281 281.4375 355.316406 282.035156 C 355.230469 282.085938 355.136719 282.136719 355.046875 282.183594 C 354.992188 282.21875 354.9375 282.25 354.878906 282.277344 C 354.789062 282.328125 354.707031 282.382812 354.625 282.433594 C 352.535156 283.648438 350.511719 284.910156 348.554688 286.222656 C 348.328125 286.378906 348.101562 286.527344 347.878906 286.679688 C 346.910156 287.339844 345.953125 288.007812 345.011719 288.695312 C 344.996094 288.707031 344.980469 288.71875 344.96875 288.730469 C 344.925781 288.761719 344.882812 288.792969 344.835938 288.828125 C 344.195312 289.300781 343.554688 289.78125 342.929688 290.265625 C 342.90625 290.28125 342.890625 290.296875 342.867188 290.308594 C 342.175781 290.84375 341.5 291.390625 340.824219 291.941406 C 340.636719 292.097656 340.445312 292.246094 340.257812 292.394531 C 340.179688 292.453125 340.101562 292.515625 340.03125 292.582031 C 339.152344 293.3125 338.28125 294.050781 337.4375 294.808594 C 325.152344 305.808594 316.292969 319.402344 311.105469 335.246094 C 304.988281 353.957031 303.898438 375.28125 307.972656 396.914062 C 313.9375 428.609375 330.34375 454.050781 352.976562 466.714844 C 353.773438 467.160156 354.582031 467.589844 355.402344 468.007812 C 355.648438 468.132812 355.90625 468.253906 356.152344 468.375 C 356.730469 468.664062 357.308594 468.941406 357.890625 469.21875 C 358.183594 469.351562 358.472656 469.480469 358.765625 469.609375 C 359.328125 469.863281 359.882812 470.109375 360.449219 470.347656 C 360.746094 470.472656 361.042969 470.589844 361.34375 470.710938 C 361.921875 470.941406 362.5 471.171875 363.082031 471.390625 C 363.367188 471.503906 363.660156 471.605469 363.953125 471.710938 C 364.5625 471.929688 365.175781 472.152344 365.800781 472.355469 C 366.0625 472.441406 366.332031 472.53125 366.601562 472.621094 C 367.265625 472.835938 367.9375 473.042969 368.613281 473.242188 C 368.839844 473.308594 369.066406 473.378906 369.296875 473.441406 C 370.050781 473.652344 370.808594 473.859375 371.574219 474.054688 C 371.726562 474.09375 371.882812 474.136719 372.035156 474.175781 C 372.957031 474.410156 373.886719 474.621094 374.824219 474.828125 C 375.191406 481.523438 375.5 488.246094 375.746094 494.972656 C 375.503906 495.054688 375.289062 495.191406 375.113281 495.363281 C 375.09375 495.382812 375.070312 495.398438 375.054688 495.421875 C 375.015625 495.464844 374.980469 495.511719 374.949219 495.554688 C 374.921875 495.585938 374.898438 495.625 374.878906 495.660156 C 374.851562 495.703125 374.828125 495.746094 374.804688 495.789062 C 374.785156 495.839844 374.761719 495.882812 374.742188 495.933594 C 374.722656 495.972656 374.707031 496.015625 374.695312 496.054688 C 374.679688 496.117188 374.664062 496.179688 374.652344 496.242188 C 374.648438 496.273438 374.636719 496.3125 374.636719 496.347656 C 374.625 496.445312 374.621094 496.550781 374.628906 496.65625 C 375.066406 501.84375 375.152344 506.25 374.167969 510.882812 C 374.070312 511.363281 373.949219 511.875 373.828125 512.417969 C 373.773438 512.664062 373.710938 512.925781 373.65625 513.175781 C 373.636719 513.28125 373.613281 513.386719 373.585938 513.492188 C 373.546875 513.65625 373.515625 513.828125 373.476562 513.996094 C 373.449219 514.128906 373.421875 514.261719 373.394531 514.386719 C 373.359375 514.539062 373.332031 514.6875 373.300781 514.839844 C 373.273438 514.984375 373.238281 515.132812 373.210938 515.28125 C 373.183594 515.417969 373.15625 515.554688 373.128906 515.699219 C 373.070312 516 373.011719 516.304688 372.964844 516.613281 C 372.949219 516.722656 372.925781 516.832031 372.910156 516.941406 C 372.882812 517.117188 372.855469 517.300781 372.828125 517.476562 C 372.808594 517.585938 372.792969 517.703125 372.777344 517.8125 C 372.75 517.992188 372.726562 518.179688 372.707031 518.363281 C 372.695312 518.46875 372.679688 518.570312 372.667969 518.679688 C 372.644531 518.875 372.625 519.066406 372.605469 519.257812 C 372.601562 519.335938 372.597656 519.414062 372.589844 519.492188 C 372.535156 520.164062 372.507812 520.828125 372.519531 521.488281 C 372.519531 521.578125 372.519531 521.664062 372.523438 521.757812 C 372.53125 521.945312 372.539062 522.132812 372.550781 522.320312 C 372.558594 522.414062 372.5625 522.507812 372.574219 522.601562 C 372.589844 522.789062 372.605469 522.972656 372.628906 523.15625 C 372.640625 523.238281 372.652344 523.316406 372.660156 523.398438 C 372.722656 523.832031 372.800781 524.257812 372.910156 524.667969 C 372.910156 524.667969 372.910156 524.667969 372.910156 524.675781 C 372.898438 524.921875 372.882812 525.164062 372.863281 525.414062 C 372.84375 525.84375 372.820312 526.277344 372.789062 526.707031 C 372.765625 527.003906 372.734375 527.300781 372.707031 527.597656 C 372.671875 527.976562 372.632812 528.359375 372.589844 528.738281 C 372.558594 529.039062 372.511719 529.347656 372.476562 529.652344 C 372.425781 530.023438 372.375 530.398438 372.320312 530.773438 C 372.277344 531.078125 372.226562 531.375 372.171875 531.675781 C 372.105469 532.054688 372.039062 532.4375 371.96875 532.816406 C 371.914062 533.105469 371.859375 533.394531 371.796875 533.683594 C 371.714844 534.082031 371.628906 534.476562 371.535156 534.875 C 371.472656 535.144531 371.414062 535.414062 371.347656 535.683594 C 371.238281 536.125 371.121094 536.5625 371 537 C 370.941406 537.222656 370.886719 537.445312 370.820312 537.671875 C 370.632812 538.332031 370.433594 538.992188 370.21875 539.644531 C 370.050781 540.167969 370.152344 540.742188 370.488281 541.171875 C 370.824219 541.601562 371.359375 541.835938 371.902344 541.796875 C 374.480469 541.617188 377.015625 541.765625 379.707031 541.925781 C 381.230469 542.011719 382.800781 542.105469 384.375 542.132812 C 384.386719 542.132812 384.390625 542.132812 384.402344 542.132812 C 384.898438 542.132812 385.363281 541.914062 385.675781 541.527344 C 385.996094 541.136719 386.117188 540.625 386.011719 540.128906 C 385.902344 539.636719 385.816406 539.132812 385.738281 538.640625 C 385.722656 538.523438 385.699219 538.414062 385.683594 538.296875 C 385.621094 537.863281 385.574219 537.421875 385.535156 536.980469 C 385.519531 536.785156 385.5 536.582031 385.492188 536.382812 C 385.472656 536.113281 385.464844 535.835938 385.457031 535.566406 C 385.445312 535.164062 385.441406 534.769531 385.453125 534.367188 C 385.453125 534.253906 385.457031 534.136719 385.464844 534.019531 C 385.480469 533.414062 385.523438 532.808594 385.585938 532.210938 C 385.957031 532.425781 386.316406 532.667969 386.660156 532.9375 C 386.671875 532.941406 386.679688 532.953125 386.691406 532.957031 C 386.792969 533.042969 386.894531 533.125 386.992188 533.210938 C 387.007812 533.226562 387.023438 533.246094 387.046875 533.257812 C 387.140625 533.339844 387.234375 533.421875 387.320312 533.503906 C 387.34375 533.519531 387.367188 533.542969 387.382812 533.5625 C 387.46875 533.652344 387.5625 533.742188 387.652344 533.828125 C 387.671875 533.851562 387.691406 533.867188 387.710938 533.890625 C 387.804688 533.988281 387.90625 534.085938 388 534.191406 C 388.007812 534.207031 388.027344 534.21875 388.035156 534.234375 C 388.367188 534.597656 388.707031 535 389.054688 535.445312 C 389.070312 535.46875 389.085938 535.492188 389.105469 535.507812 C 389.203125 535.632812 389.300781 535.761719 389.402344 535.890625 C 389.433594 535.929688 389.460938 535.976562 389.492188 536.011719 C 389.582031 536.128906 389.671875 536.25 389.757812 536.371094 C 389.796875 536.421875 389.835938 536.476562 389.875 536.523438 C 389.957031 536.640625 390.042969 536.757812 390.125 536.878906 C 390.171875 536.9375 390.214844 537 390.257812 537.058594 C 390.347656 537.179688 390.433594 537.300781 390.523438 537.429688 C 390.566406 537.488281 390.609375 537.550781 390.652344 537.613281 C 390.753906 537.753906 390.847656 537.894531 390.953125 538.039062 C 390.988281 538.09375 391.027344 538.144531 391.066406 538.199219 C 391.203125 538.398438 391.347656 538.601562 391.488281 538.816406 L 391.554688 538.910156 C 392.066406 539.652344 392.648438 540.5 393.550781 541.132812 C 394.730469 541.957031 396.097656 542.171875 397.285156 542.308594 C 399.792969 542.597656 403.671875 542.777344 407.292969 542.777344 C 409.839844 542.777344 412.257812 542.691406 414.003906 542.480469 C 414.425781 542.429688 415.722656 542.277344 416.390625 541.125 C 416.695312 540.597656 416.742188 540.0625 416.746094 539.664062 C 416.789062 537.074219 415.519531 534.496094 413.4375 532.925781 C 412.546875 532.253906 411.554688 531.796875 410.6875 531.390625 L 406.660156 529.511719 C 403.527344 528.054688 400.449219 525.136719 397.5 520.84375 C 397.300781 520.558594 397.125 520.273438 396.949219 519.980469 C 396.894531 519.890625 396.851562 519.804688 396.796875 519.714844 C 396.675781 519.507812 396.558594 519.296875 396.457031 519.089844 C 396.40625 518.996094 396.363281 518.902344 396.3125 518.808594 C 396.191406 518.558594 396.082031 518.3125 395.972656 518.066406 C 395.949219 518.015625 395.925781 517.972656 395.910156 517.921875 C 395.789062 517.628906 395.679688 517.339844 395.582031 517.042969 C 395.546875 516.949219 395.519531 516.847656 395.488281 516.753906 C 395.421875 516.550781 395.355469 516.34375 395.296875 516.132812 C 395.261719 516.023438 395.234375 515.914062 395.203125 515.804688 C 395.148438 515.589844 395.09375 515.375 395.042969 515.152344 C 395.019531 515.066406 395 514.972656 394.980469 514.882812 C 394.921875 514.59375 394.867188 514.304688 394.824219 514.007812 C 394.804688 513.894531 394.789062 513.773438 394.773438 513.65625 C 394.746094 513.46875 394.71875 513.277344 394.695312 513.089844 C 394.679688 512.953125 394.664062 512.8125 394.652344 512.675781 C 394.636719 512.5 394.617188 512.324219 394.601562 512.144531 C 394.589844 512.003906 394.582031 511.875 394.570312 511.734375 C 394.554688 511.453125 394.535156 511.179688 394.527344 510.898438 C 394.519531 510.734375 394.515625 510.5625 394.515625 510.398438 C 394.507812 510.253906 394.507812 510.117188 394.503906 509.972656 C 394.503906 509.792969 394.496094 509.605469 394.496094 509.425781 C 394.496094 509.308594 394.496094 509.1875 394.496094 509.070312 C 394.496094 508.875 394.503906 508.671875 394.503906 508.472656 C 394.601562 508.675781 394.691406 508.882812 394.773438 509.09375 C 394.777344 509.109375 394.785156 509.121094 394.789062 509.136719 C 394.871094 509.359375 394.949219 509.578125 395.003906 509.804688 C 395.183594 510.492188 395.4375 511.175781 395.679688 511.835938 C 396.160156 513.121094 396.609375 514.339844 396.449219 515.320312 C 396.308594 516.214844 396.917969 517.0625 397.8125 517.207031 C 397.902344 517.222656 397.988281 517.230469 398.078125 517.230469 C 398.871094 517.230469 399.566406 516.652344 399.699219 515.839844 C 399.996094 514.003906 399.34375 512.242188 398.765625 510.683594 C 398.539062 510.074219 398.324219 509.496094 398.183594 508.960938 C 398.144531 508.8125 398.101562 508.664062 398.054688 508.515625 C 399.195312 508.769531 400.375 508.828125 401.542969 508.6875 C 402.445312 508.578125 403.085938 507.75 402.972656 506.847656 C 402.863281 505.945312 402.035156 505.300781 401.136719 505.417969 C 400.898438 505.445312 400.65625 505.457031 400.414062 505.460938 C 400.308594 505.460938 400.207031 505.460938 400.097656 505.457031 C 399.992188 505.449219 399.886719 505.445312 399.78125 505.433594 C 399.480469 505.410156 399.175781 505.367188 398.875 505.308594 C 399.714844 505.027344 400.480469 504.625 401.136719 504.125 C 401.140625 504.117188 401.152344 504.113281 401.15625 504.105469 C 401.367188 503.949219 401.5625 503.777344 401.746094 503.601562 C 401.773438 503.574219 401.800781 503.546875 401.828125 503.519531 C 401.988281 503.359375 402.140625 503.195312 402.285156 503.015625 C 402.332031 502.957031 402.378906 502.890625 402.421875 502.824219 C 402.53125 502.675781 402.640625 502.53125 402.734375 502.378906 C 402.800781 502.269531 402.855469 502.148438 402.917969 502.03125 C 402.976562 501.917969 403.042969 501.804688 403.09375 501.691406 C 403.199219 501.449219 403.285156 501.207031 403.351562 500.953125 C 403.769531 499.390625 403.339844 497.816406 402.25 496.9375 C 401.40625 496.253906 400.210938 496.023438 398.972656 496.296875 C 398.726562 496.351562 398.488281 496.421875 398.257812 496.511719 C 398.183594 496.539062 398.109375 496.578125 398.035156 496.605469 C 397.886719 496.664062 397.738281 496.730469 397.59375 496.804688 C 397.511719 496.847656 397.429688 496.890625 397.351562 496.941406 C 397.226562 497.011719 397.105469 497.085938 396.984375 497.160156 C 396.902344 497.214844 396.824219 497.265625 396.746094 497.320312 C 396.636719 497.398438 396.527344 497.480469 396.421875 497.5625 C 396.34375 497.625 396.273438 497.683594 396.203125 497.746094 C 396.105469 497.828125 396.011719 497.914062 395.917969 497.996094 C 395.851562 498.058594 395.777344 498.125 395.714844 498.183594 C 395.625 498.273438 395.539062 498.359375 395.453125 498.445312 C 395.394531 498.507812 395.328125 498.570312 395.273438 498.636719 C 395.191406 498.722656 395.121094 498.808594 395.042969 498.894531 C 394.988281 498.957031 394.933594 499.023438 394.882812 499.082031 C 394.886719 498.625 394.886719 498.167969 394.878906 497.710938 C 394.851562 496.5625 394.804688 494.636719 393.007812 493.441406 C 393.007812 493.441406 393.007812 493.433594 393.007812 493.433594 C 393.007812 490.566406 393.03125 487.714844 393.066406 484.941406 C 393.066406 484.925781 393.066406 484.902344 393.066406 484.886719 C 393.078125 484.28125 393.085938 483.6875 393.097656 483.085938 C 393.101562 482.894531 393.101562 482.707031 393.105469 482.515625 C 393.117188 481.992188 393.125 481.476562 393.132812 480.957031 C 393.140625 480.695312 393.144531 480.429688 393.152344 480.164062 C 393.160156 479.707031 393.167969 479.246094 393.179688 478.792969 C 393.195312 478.132812 393.207031 477.480469 393.222656 476.835938 C 393.640625 476.839844 394.050781 476.851562 394.464844 476.851562 C 404.457031 476.851562 414.921875 475.394531 425.554688 472.453125 C 425.738281 472.40625 425.917969 472.34375 426.101562 472.292969 C 426.316406 476.039062 426.507812 479.785156 426.6875 483.542969 C 426.6875 483.601562 426.695312 483.648438 426.695312 483.703125 C 426.871094 487.480469 427.03125 491.261719 427.167969 495.035156 C 427.09375 495.070312 427.035156 495.109375 426.96875 495.148438 C 426.957031 495.15625 426.941406 495.164062 426.929688 495.175781 C 426.871094 495.214844 426.816406 495.257812 426.761719 495.304688 C 426.75 495.316406 426.734375 495.328125 426.722656 495.34375 C 426.628906 495.433594 426.550781 495.527344 426.480469 495.632812 C 426.464844 495.652344 426.445312 495.675781 426.4375 495.695312 C 426.414062 495.734375 426.398438 495.78125 426.375 495.816406 C 426.351562 495.867188 426.332031 495.917969 426.308594 495.96875 C 426.292969 496.003906 426.28125 496.042969 426.269531 496.082031 C 426.253906 496.144531 426.238281 496.210938 426.226562 496.269531 C 426.222656 496.300781 426.214844 496.335938 426.210938 496.367188 C 426.199219 496.46875 426.199219 496.566406 426.203125 496.671875 C 426.640625 501.863281 426.726562 506.265625 425.742188 510.898438 C 425.644531 511.378906 425.523438 511.890625 425.402344 512.429688 C 425.347656 512.675781 425.285156 512.933594 425.230469 513.1875 C 425.210938 513.292969 425.1875 513.398438 425.164062 513.496094 C 425.128906 513.667969 425.089844 513.839844 425.054688 514.007812 C 425.027344 514.140625 425 514.273438 424.972656 514.40625 C 424.941406 514.554688 424.914062 514.703125 424.878906 514.851562 C 424.851562 514.992188 424.820312 515.140625 424.792969 515.285156 C 424.765625 515.421875 424.738281 515.566406 424.710938 515.703125 C 424.652344 516 424.597656 516.304688 424.542969 516.613281 C 424.523438 516.726562 424.503906 516.835938 424.484375 516.953125 C 424.457031 517.128906 424.429688 517.304688 424.402344 517.480469 C 424.382812 517.597656 424.367188 517.710938 424.351562 517.828125 C 424.324219 518.011719 424.300781 518.195312 424.28125 518.378906 C 424.269531 518.484375 424.253906 518.589844 424.242188 518.691406 C 424.21875 518.886719 424.199219 519.078125 424.179688 519.269531 C 424.175781 519.347656 424.171875 519.425781 424.164062 519.507812 C 424.109375 520.179688 424.082031 520.84375 424.09375 521.5 C 424.09375 521.585938 424.09375 521.679688 424.097656 521.769531 C 424.105469 521.957031 424.117188 522.144531 424.125 522.332031 C 424.132812 522.425781 424.136719 522.519531 424.148438 522.617188 C 424.164062 522.804688 424.179688 522.984375 424.203125 523.171875 C 424.214844 523.253906 424.226562 523.332031 424.234375 523.414062 C 424.296875 523.851562 424.375 524.273438 424.484375 524.6875 C 424.472656 524.933594 424.457031 525.175781 424.441406 525.421875 C 424.417969 525.851562 424.394531 526.289062 424.363281 526.71875 C 424.339844 527.015625 424.308594 527.3125 424.28125 527.609375 C 424.246094 527.988281 424.207031 528.367188 424.164062 528.75 C 424.132812 529.054688 424.085938 529.359375 424.050781 529.660156 C 424 530.035156 423.949219 530.410156 423.894531 530.777344 C 423.851562 531.082031 423.800781 531.378906 423.746094 531.683594 C 423.679688 532.0625 423.613281 532.441406 423.542969 532.820312 C 423.488281 533.113281 423.433594 533.40625 423.371094 533.691406 C 423.289062 534.085938 423.203125 534.484375 423.109375 534.878906 C 423.046875 535.148438 422.988281 535.417969 422.921875 535.6875 C 422.8125 536.128906 422.695312 536.570312 422.574219 537.007812 C 422.515625 537.234375 422.460938 537.457031 422.394531 537.679688 C 422.207031 538.339844 422.007812 539 421.792969 539.65625 C 421.625 540.179688 421.730469 540.753906 422.0625 541.179688 C 422.398438 541.617188 422.925781 541.847656 423.476562 541.808594 C 426.054688 541.628906 428.589844 541.777344 431.28125 541.933594 C 432.804688 542.023438 434.375 542.117188 435.949219 542.144531 C 435.960938 542.144531 435.964844 542.144531 435.976562 542.144531 C 436.472656 542.144531 436.9375 541.925781 437.253906 541.539062 C 437.570312 541.148438 437.691406 540.636719 437.585938 540.140625 C 437.476562 539.644531 437.390625 539.144531 437.3125 538.648438 C 437.296875 538.539062 437.273438 538.425781 437.261719 538.3125 C 437.203125 537.878906 437.152344 537.4375 437.113281 537 C 437.097656 536.800781 437.082031 536.597656 437.070312 536.398438 C 437.054688 536.128906 437.042969 535.859375 437.039062 535.582031 C 437.027344 535.183594 437.019531 534.78125 437.03125 534.382812 C 437.03125 534.269531 437.039062 534.152344 437.042969 534.039062 C 437.066406 533.433594 437.105469 532.828125 437.164062 532.226562 C 437.539062 532.441406 437.894531 532.683594 438.242188 532.953125 C 438.253906 532.957031 438.257812 532.96875 438.269531 532.976562 C 438.367188 533.058594 438.472656 533.140625 438.570312 533.222656 C 438.589844 533.238281 438.609375 533.253906 438.628906 533.273438 C 438.71875 533.347656 438.808594 533.433594 438.902344 533.519531 C 438.925781 533.542969 438.945312 533.558594 438.96875 533.582031 C 439.054688 533.664062 439.148438 533.75 439.238281 533.84375 C 439.257812 533.867188 439.277344 533.882812 439.296875 533.90625 C 439.390625 534.003906 439.492188 534.101562 439.582031 534.207031 C 439.59375 534.222656 439.609375 534.234375 439.621094 534.253906 C 439.953125 534.617188 440.292969 535.015625 440.640625 535.464844 C 440.65625 535.484375 440.671875 535.507812 440.6875 535.527344 C 440.789062 535.648438 440.882812 535.78125 440.980469 535.910156 C 441.011719 535.945312 441.039062 535.992188 441.074219 536.035156 C 441.160156 536.152344 441.25 536.265625 441.339844 536.386719 C 441.375 536.4375 441.414062 536.492188 441.453125 536.546875 C 441.535156 536.664062 441.625 536.785156 441.710938 536.90625 C 441.75 536.960938 441.792969 537.019531 441.839844 537.074219 C 441.925781 537.195312 442.015625 537.324219 442.109375 537.457031 C 442.152344 537.515625 442.191406 537.578125 442.234375 537.636719 C 442.332031 537.773438 442.433594 537.917969 442.53125 538.0625 C 442.570312 538.117188 442.601562 538.164062 442.640625 538.21875 C 442.777344 538.417969 442.921875 538.628906 443.070312 538.835938 L 443.136719 538.929688 C 443.648438 539.679688 444.230469 540.519531 445.132812 541.160156 C 446.308594 541.984375 447.679688 542.199219 448.867188 542.335938 C 451.375 542.625 455.25 542.804688 458.875 542.804688 C 461.421875 542.804688 463.839844 542.71875 465.582031 542.507812 C 466.007812 542.457031 467.304688 542.304688 467.96875 541.160156 C 468.277344 540.632812 468.320312 540.097656 468.332031 539.691406 C 468.375 537.101562 467.105469 534.523438 465.023438 532.953125 C 464.132812 532.28125 463.140625 531.820312 462.273438 531.417969 L 458.246094 529.539062 C 455.113281 528.082031 452.035156 525.164062 449.085938 520.871094 C 448.886719 520.585938 448.710938 520.300781 448.535156 520.007812 C 448.480469 519.917969 448.4375 519.832031 448.382812 519.742188 C 448.261719 519.535156 448.144531 519.324219 448.042969 519.117188 C 447.992188 519.023438 447.949219 518.929688 447.898438 518.835938 C 447.777344 518.589844 447.667969 518.339844 447.558594 518.09375 C 447.535156 518.042969 447.511719 518 447.492188 517.949219 C 447.371094 517.65625 447.261719 517.367188 447.160156 517.070312 C 447.128906 516.976562 447.101562 516.875 447.066406 516.78125 C 447 516.578125 446.9375 516.371094 446.875 516.160156 C 446.84375 516.050781 446.816406 515.941406 446.78125 515.832031 C 446.726562 515.617188 446.671875 515.402344 446.621094 515.1875 C 446.601562 515.097656 446.578125 515.003906 446.5625 514.917969 C 446.5 514.625 446.445312 514.339844 446.402344 514.046875 C 446.378906 513.929688 446.371094 513.808594 446.347656 513.6875 C 446.320312 513.503906 446.292969 513.316406 446.269531 513.121094 C 446.253906 512.984375 446.238281 512.847656 446.226562 512.710938 C 446.210938 512.535156 446.195312 512.359375 446.175781 512.179688 C 446.164062 512.042969 446.15625 511.90625 446.144531 511.769531 C 446.128906 511.492188 446.109375 511.210938 446.101562 510.933594 C 446.09375 510.761719 446.089844 510.597656 446.089844 510.425781 C 446.082031 510.289062 446.082031 510.144531 446.078125 510.007812 C 446.078125 509.824219 446.074219 509.636719 446.074219 509.453125 C 446.074219 509.335938 446.074219 509.214844 446.074219 509.097656 C 446.074219 508.902344 446.078125 508.699219 446.078125 508.5 C 446.175781 508.703125 446.265625 508.910156 446.347656 509.121094 C 446.351562 509.136719 446.359375 509.148438 446.363281 509.164062 C 446.445312 509.386719 446.523438 509.609375 446.578125 509.835938 C 446.761719 510.523438 447.011719 511.207031 447.253906 511.867188 C 447.734375 513.15625 448.183594 514.371094 448.023438 515.351562 C 447.882812 516.25 448.492188 517.097656 449.386719 517.238281 C 449.476562 517.257812 449.5625 517.261719 449.652344 517.261719 C 450.445312 517.261719 451.140625 516.683594 451.273438 515.875 C 451.570312 514.035156 450.917969 512.273438 450.339844 510.71875 C 450.113281 510.105469 449.898438 509.527344 449.757812 508.996094 C 449.71875 508.847656 449.675781 508.699219 449.628906 508.546875 C 450.769531 508.796875 451.949219 508.863281 453.117188 508.71875 C 454.019531 508.609375 454.660156 507.785156 454.546875 506.882812 C 454.4375 505.976562 453.613281 505.335938 452.710938 505.449219 C 452.46875 505.476562 452.230469 505.488281 451.988281 505.492188 C 451.886719 505.492188 451.78125 505.492188 451.675781 505.488281 C 451.570312 505.484375 451.46875 505.476562 451.363281 505.464844 C 451.058594 505.445312 450.757812 505.402344 450.460938 505.339844 C 451.300781 505.058594 452.066406 504.65625 452.722656 504.15625 C 452.726562 504.152344 452.738281 504.144531 452.742188 504.132812 C 452.953125 503.976562 453.148438 503.804688 453.332031 503.628906 C 453.359375 503.601562 453.386719 503.574219 453.414062 503.539062 C 453.574219 503.378906 453.726562 503.214844 453.871094 503.039062 C 453.917969 502.980469 453.964844 502.914062 454.007812 502.847656 C 454.117188 502.699219 454.226562 502.554688 454.320312 502.394531 C 454.390625 502.28125 454.449219 502.164062 454.507812 502.042969 C 454.566406 501.925781 454.632812 501.816406 454.683594 501.703125 C 454.789062 501.460938 454.875 501.21875 454.941406 500.964844 C 455.359375 499.402344 454.925781 497.828125 453.84375 496.945312 C 452.996094 496.265625 451.800781 496.03125 450.558594 496.308594 C 450.3125 496.363281 450.074219 496.433594 449.84375 496.523438 C 449.769531 496.550781 449.695312 496.582031 449.621094 496.617188 C 449.472656 496.675781 449.324219 496.742188 449.179688 496.8125 C 449.097656 496.859375 449.015625 496.902344 448.9375 496.945312 C 448.8125 497.019531 448.691406 497.089844 448.570312 497.167969 C 448.488281 497.222656 448.410156 497.269531 448.332031 497.328125 C 448.222656 497.402344 448.113281 497.484375 448.007812 497.570312 C 447.929688 497.628906 447.859375 497.683594 447.789062 497.746094 C 447.6875 497.828125 447.597656 497.914062 447.503906 497.996094 C 447.4375 498.058594 447.363281 498.125 447.296875 498.183594 C 447.210938 498.273438 447.121094 498.359375 447.039062 498.449219 C 446.980469 498.515625 446.917969 498.574219 446.859375 498.636719 C 446.78125 498.722656 446.703125 498.808594 446.632812 498.894531 C 446.578125 498.957031 446.523438 499.023438 446.46875 499.082031 C 446.472656 498.625 446.472656 498.167969 446.464844 497.710938 C 446.464844 497.644531 446.457031 497.574219 446.457031 497.496094 C 446.457031 497.46875 446.457031 497.449219 446.457031 497.417969 C 446.457031 497.371094 446.453125 497.316406 446.453125 497.265625 C 446.453125 497.234375 446.445312 497.199219 446.445312 497.167969 C 446.445312 497.117188 446.441406 497.074219 446.441406 497.023438 C 446.441406 496.984375 446.433594 496.945312 446.429688 496.90625 C 446.425781 496.863281 446.425781 496.8125 446.417969 496.769531 C 446.414062 496.726562 446.40625 496.6875 446.40625 496.644531 C 446.402344 496.601562 446.398438 496.550781 446.390625 496.507812 C 446.386719 496.460938 446.378906 496.417969 446.375 496.375 C 446.371094 496.324219 446.359375 496.28125 446.351562 496.230469 C 446.347656 496.1875 446.335938 496.144531 446.324219 496.09375 C 446.316406 496.042969 446.304688 496 446.296875 495.949219 C 446.285156 495.90625 446.277344 495.855469 446.265625 495.8125 C 446.253906 495.761719 446.238281 495.71875 446.226562 495.667969 C 446.214844 495.621094 446.199219 495.574219 446.183594 495.527344 C 446.167969 495.476562 446.148438 495.433594 446.132812 495.382812 C 446.117188 495.332031 446.101562 495.289062 446.078125 495.242188 C 446.0625 495.195312 446.039062 495.148438 446.015625 495.101562 C 445.996094 495.058594 445.972656 495.007812 445.953125 494.964844 C 445.929688 494.921875 445.902344 494.871094 445.878906 494.828125 C 445.851562 494.785156 445.832031 494.734375 445.804688 494.691406 C 445.777344 494.644531 445.75 494.601562 445.714844 494.558594 C 445.6875 494.515625 445.65625 494.46875 445.628906 494.421875 C 445.59375 494.375 445.5625 494.332031 445.523438 494.289062 C 445.488281 494.242188 445.457031 494.199219 445.421875 494.160156 C 445.386719 494.113281 445.335938 494.066406 445.292969 494.023438 C 445.257812 493.984375 445.21875 493.945312 445.1875 493.914062 C 445.105469 493.835938 445.015625 493.753906 444.921875 493.683594 C 445.171875 486.621094 445.570312 478.910156 445.933594 472.058594 C 445.96875 471.464844 445.996094 470.878906 446.027344 470.300781 C 446.035156 470.246094 446.035156 470.191406 446.039062 470.136719 C 446.074219 469.542969 446.101562 468.953125 446.132812 468.375 C 446.132812 468.371094 446.132812 468.359375 446.132812 468.355469 C 446.195312 467.171875 446.253906 466.027344 446.308594 464.925781 C 446.308594 464.917969 446.308594 464.917969 446.308594 464.914062 C 446.511719 464.820312 446.714844 464.726562 446.914062 464.632812 C 447.058594 464.566406 447.195312 464.5 447.332031 464.433594 C 447.550781 464.332031 447.777344 464.226562 447.996094 464.121094 C 448.71875 463.78125 449.4375 463.433594 450.148438 463.082031 C 450.484375 462.914062 450.816406 462.75 451.152344 462.582031 C 451.160156 462.582031 451.164062 462.574219 451.171875 462.574219 C 452.191406 462.058594 453.214844 461.535156 454.214844 461 C 455.101562 460.527344 455.96875 460.046875 456.832031 459.5625 C 457.113281 459.40625 457.390625 459.246094 457.664062 459.085938 C 458.230469 458.761719 458.792969 458.4375 459.339844 458.105469 C 459.714844 457.886719 460.078125 457.660156 460.445312 457.433594 C 460.875 457.175781 461.300781 456.910156 461.71875 456.648438 C 462.164062 456.367188 462.601562 456.085938 463.035156 455.804688 C 463.34375 455.605469 463.648438 455.410156 463.953125 455.203125 C 464.246094 455.011719 464.550781 454.820312 464.839844 454.628906 C 464.839844 454.628906 464.847656 454.621094 464.847656 454.621094 C 465.769531 454 466.671875 453.371094 467.5625 452.726562 C 467.605469 452.695312 467.648438 452.667969 467.695312 452.632812 C 468.574219 451.996094 469.4375 451.351562 470.289062 450.695312 C 470.324219 450.667969 470.355469 450.648438 470.394531 450.621094 C 471.257812 449.953125 472.097656 449.277344 472.921875 448.59375 C 472.933594 448.582031 472.945312 448.574219 472.960938 448.5625 C 473.796875 447.867188 474.617188 447.164062 475.421875 446.449219 C 475.476562 446.398438 475.523438 446.355469 475.578125 446.304688 C 475.585938 446.300781 475.585938 446.300781 475.589844 446.292969 C 476.71875 445.285156 477.808594 444.261719 478.855469 443.21875 C 478.875 443.199219 478.882812 443.191406 478.902344 443.171875 C 479 443.078125 479.09375 442.980469 479.1875 442.886719 C 479.605469 442.464844 480.023438 442.039062 480.429688 441.617188 C 480.433594 441.609375 480.441406 441.605469 480.445312 441.597656 C 480.539062 441.503906 480.628906 441.414062 480.722656 441.3125 C 481.199219 440.808594 481.667969 440.300781 482.125 439.789062 C 482.222656 439.679688 482.316406 439.574219 482.410156 439.464844 C 482.777344 439.046875 483.140625 438.628906 483.5 438.207031 C 483.558594 438.136719 483.625 438.058594 483.683594 437.988281 C 483.746094 437.917969 483.804688 437.851562 483.859375 437.78125 C 484.296875 437.257812 484.730469 436.734375 485.140625 436.207031 C 493.472656 425.648438 497.074219 414.773438 499.730469 404.589844 C 500.347656 402.21875 501.078125 399.765625 501.78125 397.390625 C 501.945312 396.835938 502.113281 396.273438 502.28125 395.714844 C 502.28125 395.707031 502.289062 395.703125 502.289062 395.695312 C 502.320312 395.59375 502.347656 395.488281 502.382812 395.382812 C 502.390625 395.339844 502.410156 395.289062 502.421875 395.246094 C 502.542969 394.839844 502.660156 394.429688 502.777344 394.023438 C 502.777344 394.019531 502.78125 394.011719 502.78125 394 C 502.832031 393.824219 502.882812 393.648438 502.929688 393.480469 C 502.941406 393.445312 502.949219 393.414062 502.957031 393.378906 C 503.058594 393.027344 503.164062 392.667969 503.261719 392.316406 C 503.261719 392.3125 503.265625 392.300781 503.265625 392.296875 C 503.320312 392.089844 503.375 391.886719 503.4375 391.683594 C 503.441406 391.664062 503.449219 391.636719 503.460938 391.613281 C 503.554688 391.277344 503.644531 390.941406 503.734375 390.605469 C 503.734375 390.601562 503.738281 390.589844 503.738281 390.582031 C 503.800781 390.359375 503.855469 390.132812 503.914062 389.90625 C 503.921875 389.890625 503.925781 389.875 503.925781 389.855469 C 504.007812 389.53125 504.097656 389.207031 504.179688 388.882812 C 504.179688 388.878906 504.183594 388.871094 504.183594 388.867188 C 504.246094 388.628906 504.300781 388.394531 504.359375 388.152344 C 504.359375 388.140625 504.367188 388.128906 504.367188 388.117188 C 504.445312 387.796875 504.519531 387.480469 504.597656 387.15625 C 504.597656 387.148438 504.597656 387.144531 504.601562 387.136719 C 504.65625 386.890625 504.714844 386.648438 504.769531 386.402344 C 504.769531 386.394531 504.773438 386.382812 504.773438 386.378906 C 504.84375 386.058594 504.910156 385.742188 504.976562 385.421875 C 504.976562 385.414062 504.976562 385.410156 504.984375 385.40625 C 505.03125 385.152344 505.082031 384.902344 505.132812 384.652344 C 505.132812 384.644531 505.132812 384.640625 505.136719 384.632812 C 505.195312 384.316406 505.257812 383.996094 505.3125 383.675781 C 505.3125 383.671875 505.3125 383.664062 505.3125 383.660156 C 505.355469 383.40625 505.402344 383.152344 505.445312 382.894531 C 505.445312 382.890625 505.445312 382.890625 505.445312 382.882812 C 505.5 382.566406 505.550781 382.246094 505.59375 381.921875 C 505.59375 381.914062 505.59375 381.910156 505.59375 381.910156 C 505.632812 381.652344 505.671875 381.398438 505.703125 381.140625 C 505.703125 381.140625 505.703125 381.132812 505.703125 381.132812 C 505.746094 380.808594 505.785156 380.488281 505.820312 380.164062 C 505.820312 380.160156 505.820312 380.160156 505.820312 380.152344 C 505.847656 379.894531 505.878906 379.640625 505.902344 379.382812 C 505.902344 379.382812 505.902344 379.378906 505.902344 379.378906 C 505.933594 379.046875 505.957031 378.722656 505.984375 378.390625 C 505.984375 378.386719 505.984375 378.386719 505.984375 378.382812 C 506 378.128906 506.023438 377.875 506.039062 377.617188 C 506.039062 377.617188 506.039062 377.617188 506.039062 377.609375 C 506.058594 377.273438 506.070312 376.933594 506.082031 376.597656 C 506.082031 376.597656 506.082031 376.59375 506.082031 376.59375 C 506.09375 376.34375 506.105469 376.097656 506.105469 375.851562 C 506.144531 375.496094 506.136719 375.144531 506.132812 374.792969 Z M 396.636719 502.132812 C 396.875 501.855469 397.058594 501.648438 397.148438 501.53125 C 398.082031 500.335938 398.890625 499.699219 399.707031 499.515625 C 399.84375 499.484375 399.953125 499.476562 400.03125 499.476562 C 400.125 499.476562 400.179688 499.488281 400.179688 499.484375 C 400.222656 499.542969 400.265625 499.796875 400.183594 500.101562 C 399.929688 501.035156 398.953125 501.882812 397.675781 502.253906 C 397.132812 502.410156 396.640625 502.527344 396.21875 502.605469 C 396.390625 502.410156 396.539062 502.242188 396.636719 502.132812 Z M 448.246094 502.125 C 448.480469 501.855469 448.667969 501.640625 448.757812 501.53125 C 449.691406 500.335938 450.5 499.699219 451.308594 499.515625 C 451.445312 499.484375 451.554688 499.476562 451.632812 499.476562 C 451.726562 499.476562 451.78125 499.488281 451.78125 499.484375 C 451.824219 499.542969 451.867188 499.796875 451.785156 500.101562 C 451.53125 501.035156 450.546875 501.882812 449.277344 502.253906 C 448.734375 502.410156 448.246094 502.527344 447.820312 502.605469 C 447.996094 502.410156 448.144531 502.242188 448.246094 502.125 Z M 415.890625 391.519531 C 415.046875 391.113281 414.304688 390.363281 413.523438 389.570312 C 413.058594 389.097656 412.574219 388.609375 412.035156 388.15625 C 410.300781 386.699219 408.289062 385.828125 406.34375 384.992188 C 404.617188 384.25 402.984375 383.542969 401.652344 382.480469 C 398.164062 379.703125 397.03125 374.804688 396.09375 369.609375 C 395.527344 366.472656 394.9375 363.230469 395.289062 360.121094 C 395.660156 356.867188 397.097656 354.199219 399.234375 352.792969 C 402.949219 350.355469 407.894531 349.160156 412.902344 349.160156 C 418.742188 349.160156 424.664062 350.785156 428.816406 353.964844 C 430.578125 355.316406 431.757812 356.535156 432.539062 357.824219 C 433.914062 360.082031 434.273438 362.960938 434.441406 365.476562 C 434.921875 372.453125 434.046875 378.039062 431.78125 382.546875 C 431.582031 382.945312 431.367188 383.324219 431.144531 383.699219 C 431.082031 383.804688 431.015625 383.902344 430.949219 384.007812 C 430.773438 384.289062 430.597656 384.5625 430.410156 384.832031 C 430.34375 384.925781 430.285156 385.019531 430.214844 385.113281 C 429.984375 385.433594 429.746094 385.742188 429.503906 386.042969 C 429.480469 386.070312 429.460938 386.097656 429.4375 386.125 C 429.148438 386.476562 428.84375 386.8125 428.53125 387.136719 C 428.292969 387.304688 428.058594 387.46875 427.816406 387.640625 C 427.570312 387.816406 427.316406 387.992188 427.058594 388.167969 C 427.003906 388.207031 426.941406 388.25 426.886719 388.289062 C 426.617188 388.476562 426.347656 388.664062 426.078125 388.84375 C 426.046875 388.867188 426.007812 388.894531 425.972656 388.917969 C 425.710938 389.09375 425.445312 389.269531 425.175781 389.445312 C 425.15625 389.460938 425.132812 389.472656 425.109375 389.488281 C 424.835938 389.664062 424.554688 389.839844 424.28125 390.007812 C 424.234375 390.035156 424.191406 390.054688 424.148438 390.082031 C 423.863281 390.253906 423.582031 390.417969 423.300781 390.574219 C 423.296875 390.574219 423.296875 390.578125 423.289062 390.578125 C 423.011719 390.734375 422.734375 390.871094 422.460938 391.003906 C 422.425781 391.019531 422.386719 391.035156 422.355469 391.050781 C 422.082031 391.179688 421.8125 391.300781 421.542969 391.402344 C 421.507812 391.414062 421.46875 391.429688 421.4375 391.441406 C 421.164062 391.546875 420.894531 391.640625 420.628906 391.710938 C 420.355469 391.773438 420.074219 391.820312 419.796875 391.859375 C 419.511719 391.898438 419.230469 391.933594 418.945312 391.953125 C 417.675781 392.035156 416.675781 391.894531 415.890625 391.519531 Z M 415.890625 391.519531 " fill-opacity="1" fill-rule="nonzero"/></g><path fill="#e7688b" d="M 502.304688 369.292969 C 499.671875 355.503906 494.136719 342.230469 488.550781 329.941406 C 478.316406 307.429688 457.335938 280.925781 429.121094 274.039062 C 411.359375 269.707031 394.625 269.84375 380.730469 274.433594 C 366.191406 279.238281 353.597656 285.886719 343.285156 294.199219 C 342.351562 296.832031 342.355469 299.585938 342.367188 302.5 C 342.378906 306.414062 342.390625 310.464844 339.988281 314.246094 C 336.972656 318.890625 333.328125 322.863281 329.804688 326.707031 C 324.53125 332.460938 319.546875 337.894531 316.9375 345.082031 C 312.625 358.027344 321.164062 368.925781 330.101562 377.878906 C 334.609375 381.859375 336.042969 388.414062 333.949219 395.421875 C 329.164062 411.152344 330.230469 424.015625 337.109375 433.652344 C 343.648438 442.886719 353.15625 443.164062 363.21875 443.453125 C 367.113281 443.5625 371.136719 443.683594 375.09375 444.320312 C 379.984375 445.015625 381.222656 447.664062 382.539062 450.472656 C 382.917969 451.28125 383.3125 452.121094 383.824219 452.996094 C 386.039062 456.785156 389.195312 459.855469 392.964844 461.882812 C 395.382812 463.1875 399.148438 464.632812 403.351562 464.136719 C 405.59375 463.875 407.707031 463.316406 409.746094 462.773438 C 413.222656 461.847656 416.824219 460.902344 421.097656 461.390625 C 422.664062 461.574219 424.273438 461.789062 425.832031 461.996094 C 431.203125 462.71875 436.757812 463.464844 442.019531 462.992188 C 442.273438 462.960938 442.53125 462.917969 442.785156 462.878906 C 446.15625 461.414062 449.488281 459.800781 452.699219 458.082031 C 456.285156 456.167969 459.699219 454.125 462.855469 452.011719 C 463.089844 451.730469 463.324219 451.453125 463.546875 451.160156 C 463.910156 450.691406 464.476562 450.472656 465.015625 450.527344 C 472.011719 445.585938 477.917969 440.085938 482.597656 434.160156 C 489.167969 425.832031 492.679688 417.496094 495.4375 407.933594 C 495.832031 406.566406 496.210938 405.175781 496.578125 403.753906 C 497.210938 401.332031 497.949219 398.851562 498.664062 396.445312 C 498.992188 395.332031 499.328125 394.214844 499.652344 393.09375 C 501.914062 385.257812 503.816406 377.21875 502.304688 369.292969 Z M 413.761719 276 C 415.675781 275.628906 417.6875 276.070312 419.269531 277.214844 C 420.007812 277.75 420.171875 278.777344 419.644531 279.515625 C 419.320312 279.960938 418.820312 280.199219 418.308594 280.199219 C 417.972656 280.199219 417.636719 280.097656 417.347656 279.882812 C 416.511719 279.277344 415.40625 279.035156 414.386719 279.230469 C 413.496094 279.398438 412.632812 278.816406 412.457031 277.925781 C 412.285156 277.039062 412.871094 276.175781 413.761719 276 Z M 412.265625 294.484375 C 414.765625 292.769531 418.269531 291.695312 421.636719 291.617188 C 422.988281 291.601562 433.808594 293.351562 434.789062 297.605469 C 434.941406 298.265625 434.992188 299.570312 433.617188 300.871094 C 432.738281 301.703125 431.636719 301.988281 430.675781 302.191406 C 427.058594 302.957031 423.390625 303.339844 419.710938 303.339844 C 417.820312 303.339844 415.925781 303.242188 414.035156 303.039062 C 410.410156 302.648438 409.449219 300.925781 409.195312 299.929688 C 408.746094 298.117188 409.863281 296.136719 412.265625 294.484375 Z M 429.65625 307.8125 C 429.585938 308.667969 428.867188 309.320312 428.019531 309.320312 C 427.976562 309.320312 427.925781 309.320312 427.882812 309.3125 C 425.609375 309.121094 423.339844 308.742188 421.128906 308.179688 C 420.25 307.953125 419.714844 307.058594 419.941406 306.175781 C 420.167969 305.296875 421.0625 304.761719 421.941406 304.988281 C 423.976562 305.503906 426.066406 305.855469 428.15625 306.03125 C 429.0625 306.109375 429.734375 306.90625 429.65625 307.8125 Z M 408.84375 307.96875 C 409.109375 307.046875 409.78125 306.246094 410.644531 305.828125 C 411.847656 305.246094 413.105469 305.378906 414.179688 305.582031 C 414.84375 305.707031 415.332031 306.21875 415.476562 306.84375 C 415.921875 307.300781 416.214844 307.875 416.285156 308.492188 C 416.425781 309.703125 415.722656 310.898438 414.546875 311.472656 C 413.910156 311.777344 413.25 311.855469 412.695312 311.855469 C 412.472656 311.855469 412.265625 311.84375 412.089844 311.828125 C 410.703125 311.714844 409.714844 311.195312 409.152344 310.296875 C 408.71875 309.609375 408.613281 308.785156 408.84375 307.96875 Z M 407.828125 322.152344 L 413.660156 319.285156 C 413.238281 318.664062 412.847656 318.027344 412.496094 317.359375 C 412.066406 316.554688 412.375 315.558594 413.179688 315.132812 C 413.980469 314.703125 414.976562 315.011719 415.40625 315.8125 C 415.773438 316.507812 416.191406 317.179688 416.652344 317.816406 C 418.59375 316.871094 420.9375 315.828125 423.492188 315.976562 C 423.902344 316 424.433594 316.070312 424.949219 316.40625 C 425.515625 316.777344 425.804688 317.300781 425.96875 317.65625 C 426.820312 319.527344 426.527344 321.464844 426.277344 323.171875 C 426.144531 324.058594 426.019531 324.894531 426.050781 325.664062 C 426.089844 326.574219 425.386719 327.34375 424.472656 327.382812 C 424.449219 327.382812 424.421875 327.382812 424.402344 327.382812 C 423.519531 327.382812 422.796875 326.6875 422.757812 325.804688 C 422.714844 324.722656 422.867188 323.6875 423.015625 322.6875 C 423.214844 321.359375 423.382812 320.199219 423.058594 319.253906 C 423.039062 319.253906 423.015625 319.253906 422.992188 319.253906 C 421.179688 319.253906 419.289062 320.183594 417.617188 321.003906 L 409.277344 325.105469 C 408.464844 325.503906 407.476562 325.171875 407.074219 324.351562 C 406.671875 323.546875 407.007812 322.554688 407.828125 322.152344 Z M 406.171875 309.523438 C 406 310.539062 405.335938 311.449219 404.441406 311.90625 C 403.917969 312.167969 403.335938 312.300781 402.714844 312.300781 C 402.003906 312.300781 401.25 312.132812 400.480469 311.789062 C 400.171875 311.652344 399.234375 311.234375 398.898438 310.183594 C 398.738281 309.6875 398.753906 309.152344 398.941406 308.597656 C 399.441406 307.085938 400.964844 306.058594 402.546875 306.152344 C 403.085938 306.1875 403.609375 306.347656 404.066406 306.605469 C 404.5625 306.539062 405.082031 306.703125 405.457031 307.09375 C 406.0625 307.71875 406.324219 308.601562 406.171875 309.523438 Z M 389.726562 286.515625 C 391.339844 286.605469 392.964844 286.273438 394.421875 285.558594 C 395.234375 285.15625 396.226562 285.492188 396.625 286.3125 C 397.027344 287.128906 396.691406 288.117188 395.871094 288.519531 C 394.125 289.378906 392.1875 289.824219 390.242188 289.824219 C 390.011719 289.824219 389.78125 289.820312 389.550781 289.808594 C 388.640625 289.757812 387.941406 288.980469 387.992188 288.074219 C 388.042969 287.160156 388.8125 286.464844 389.726562 286.515625 Z M 383.652344 304.832031 C 382.675781 304.757812 381.546875 304.609375 380.570312 303.898438 C 379.039062 302.785156 378.925781 301.488281 378.992188 300.808594 C 379.425781 296.460938 389.929688 293.339844 391.28125 293.199219 C 394.625 292.851562 398.238281 293.46875 400.9375 294.855469 C 403.527344 296.1875 404.886719 298.007812 404.664062 299.859375 C 404.542969 300.875 403.808594 302.707031 400.261719 303.554688 C 396.214844 304.523438 392.089844 305.007812 387.949219 305.007812 C 386.519531 305.007812 385.089844 304.949219 383.652344 304.832031 Z M 387.328125 314.410156 C 387.234375 314.425781 387.144531 314.433594 387.058594 314.433594 C 386.265625 314.433594 385.566406 313.859375 385.4375 313.054688 C 385.289062 312.160156 385.890625 311.3125 386.789062 311.164062 C 389.339844 310.738281 391.730469 309.085938 393.035156 306.851562 C 393.492188 306.066406 394.503906 305.800781 395.289062 306.257812 C 396.074219 306.714844 396.339844 307.726562 395.882812 308.515625 C 394.070312 311.613281 390.867188 313.820312 387.328125 314.410156 Z M 444.613281 376.90625 C 442.355469 382.542969 436.714844 385.925781 432.59375 388.398438 C 431.738281 388.917969 430.757812 389.605469 429.71875 390.332031 C 426.464844 392.621094 422.769531 395.21875 419.121094 395.238281 C 418.832031 395.257812 418.550781 395.269531 418.273438 395.269531 C 416.8125 395.269531 415.554688 395.007812 414.464844 394.480469 C 413.113281 393.832031 412.089844 392.789062 411.1875 391.878906 C 410.753906 391.4375 410.339844 391.023438 409.917969 390.660156 C 408.558594 389.515625 406.855469 388.785156 405.050781 388.003906 C 403.199219 387.203125 401.289062 386.378906 399.613281 385.046875 C 394.871094 381.269531 393.664062 374.59375 392.863281 370.179688 L 392.828125 369.957031 C 391.75 364.003906 390.820312 358.871094 392.808594 352.414062 C 394.226562 347.820312 396.902344 344.207031 400.34375 342.242188 C 402.070312 341.257812 403.917969 340.707031 405.699219 340.179688 C 411.757812 338.378906 418.632812 336.335938 425.542969 336.871094 C 431.324219 337.316406 436.757812 339.859375 440.085938 343.667969 C 441.195312 344.941406 442.082031 346.347656 442.707031 347.855469 C 443.933594 350.789062 444.160156 353.90625 444.378906 356.917969 C 444.445312 357.808594 444.511719 358.734375 444.605469 359.617188 C 444.730469 360.800781 444.90625 362.035156 445.078125 363.230469 C 445.714844 367.777344 446.398438 372.464844 444.613281 376.90625 Z M 444.613281 376.90625 " fill-opacity="1" fill-rule="nonzero"/><path fill="#f6f6f6" d="M 383.917969 301.546875 C 383.382812 301.503906 382.789062 301.441406 382.5 301.234375 C 382.398438 301.160156 382.335938 301.101562 382.296875 301.058594 C 382.933594 299.539062 389.703125 296.675781 391.621094 296.476562 C 391.753906 296.460938 391.890625 296.460938 392.023438 296.449219 C 391.539062 297.882812 391.824219 299.550781 392.863281 300.929688 C 392.996094 301.101562 393.132812 301.265625 393.28125 301.414062 C 390.179688 301.757812 387.046875 301.804688 383.917969 301.546875 Z M 421.265625 295.53125 C 421.304688 295.355469 421.367188 295.152344 421.464844 294.925781 C 418.824219 295.035156 416.039062 295.894531 414.128906 297.203125 C 412.65625 298.21875 412.386719 298.984375 412.398438 299.121094 C 412.402344 299.121094 412.75 299.578125 414.394531 299.753906 C 417.273438 300.0625 420.160156 300.109375 423.039062 299.917969 C 421.636719 298.628906 420.957031 296.957031 421.265625 295.53125 Z M 353.101562 415.070312 C 352.265625 414.707031 351.296875 415.09375 350.933594 415.921875 C 350.015625 418.039062 349.644531 420.367188 349.851562 422.65625 C 349.929688 423.507812 350.648438 424.152344 351.492188 424.152344 C 351.539062 424.152344 351.589844 424.152344 351.640625 424.148438 C 352.546875 424.0625 353.210938 423.261719 353.128906 422.359375 C 352.96875 420.613281 353.257812 418.839844 353.953125 417.234375 C 354.316406 416.40625 353.9375 415.433594 353.101562 415.070312 Z M 351.0625 339.902344 C 351.265625 339.902344 351.46875 339.867188 351.667969 339.789062 C 352.511719 339.453125 352.925781 338.496094 352.589844 337.648438 C 351.585938 335.105469 350.804688 332.457031 350.269531 329.769531 C 350.09375 328.878906 349.21875 328.300781 348.335938 328.476562 C 347.445312 328.652344 346.859375 329.523438 347.042969 330.414062 C 347.613281 333.292969 348.449219 336.132812 349.535156 338.863281 C 349.785156 339.511719 350.402344 339.902344 351.0625 339.902344 Z M 474.414062 339.6875 L 481.863281 342.890625 C 482.078125 342.984375 482.300781 343.023438 482.515625 343.023438 C 483.152344 343.023438 483.757812 342.648438 484.027344 342.027344 C 484.382812 341.191406 484 340.222656 483.164062 339.867188 L 475.710938 336.664062 C 474.875 336.304688 473.90625 336.691406 473.550781 337.527344 C 473.191406 338.355469 473.578125 339.332031 474.414062 339.6875 Z M 448.542969 325.753906 C 447.738281 325.328125 446.742188 325.636719 446.3125 326.441406 L 442.664062 333.359375 C 442.238281 334.164062 442.546875 335.160156 443.351562 335.589844 C 443.597656 335.722656 443.863281 335.78125 444.121094 335.78125 C 444.707031 335.78125 445.28125 335.460938 445.578125 334.902344 L 449.230469 327.984375 C 449.652344 327.179688 449.34375 326.183594 448.542969 325.753906 Z M 375.90625 324.113281 C 376.140625 323.234375 375.621094 322.328125 374.742188 322.09375 C 373.101562 321.652344 371.589844 320.789062 370.375 319.601562 C 369.726562 318.960938 368.679688 318.972656 368.046875 319.621094 C 367.410156 320.273438 367.421875 321.316406 368.070312 321.949219 C 369.6875 323.535156 371.699219 324.6875 373.882812 325.269531 C 374.027344 325.308594 374.167969 325.324219 374.3125 325.324219 C 375.042969 325.335938 375.707031 324.84375 375.90625 324.113281 Z M 332.515625 344.066406 C 331.777344 343.53125 330.75 343.695312 330.214844 344.433594 C 328.679688 346.550781 327.328125 348.832031 326.207031 351.199219 C 325.816406 352.019531 326.167969 353.003906 326.988281 353.394531 C 327.214844 353.503906 327.453125 353.554688 327.691406 353.554688 C 328.308594 353.554688 328.902344 353.207031 329.183594 352.613281 C 330.214844 350.425781 331.457031 348.332031 332.878906 346.371094 C 333.414062 345.628906 333.25 344.597656 332.515625 344.066406 Z M 362 384.265625 C 360.289062 383.242188 358.84375 381.800781 357.820312 380.089844 C 357.351562 379.304688 356.339844 379.054688 355.558594 379.527344 C 354.777344 379.996094 354.527344 381.007812 355 381.789062 C 356.300781 383.960938 358.140625 385.796875 360.3125 387.09375 C 360.574219 387.253906 360.867188 387.324219 361.152344 387.324219 C 361.714844 387.324219 362.257812 387.039062 362.566406 386.523438 C 363.03125 385.742188 362.78125 384.726562 362 384.265625 Z M 380.746094 364.9375 L 376.082031 368.390625 C 375.351562 368.929688 375.195312 369.964844 375.734375 370.699219 C 376.058594 371.132812 376.554688 371.363281 377.0625 371.363281 C 377.402344 371.363281 377.742188 371.257812 378.039062 371.039062 L 382.703125 367.582031 C 383.433594 367.042969 383.589844 366.007812 383.050781 365.277344 C 382.503906 364.542969 381.476562 364.394531 380.746094 364.9375 Z M 406.695312 418.558594 C 407.078125 418.558594 407.46875 418.421875 407.785156 418.148438 C 408.464844 417.546875 408.53125 416.5 407.933594 415.820312 C 406.445312 414.136719 405.683594 411.789062 405.878906 409.550781 C 405.964844 408.640625 405.296875 407.84375 404.390625 407.761719 C 403.484375 407.671875 402.6875 408.34375 402.601562 409.253906 C 402.316406 412.378906 403.390625 415.648438 405.460938 418.003906 C 405.789062 418.367188 406.238281 418.558594 406.695312 418.558594 Z M 396.808594 439.9375 L 389.011719 439.570312 C 388.101562 439.535156 387.332031 440.230469 387.289062 441.136719 C 387.246094 442.046875 387.949219 442.816406 388.855469 442.859375 L 396.652344 443.230469 C 396.679688 443.230469 396.707031 443.230469 396.730469 443.230469 C 397.605469 443.230469 398.332031 442.539062 398.375 441.660156 C 398.417969 440.75 397.71875 439.980469 396.808594 439.9375 Z M 451.1875 440.609375 C 450.3125 440.351562 449.398438 440.839844 449.136719 441.710938 C 448.300781 444.488281 447.847656 447.367188 447.800781 450.273438 C 447.78125 451.183594 448.507812 451.9375 449.414062 451.953125 C 449.425781 451.953125 449.4375 451.953125 449.441406 451.953125 C 450.339844 451.953125 451.070312 451.230469 451.085938 450.335938 C 451.132812 447.734375 451.53125 445.15625 452.285156 442.667969 C 452.550781 441.785156 452.054688 440.871094 451.1875 440.609375 Z M 474.304688 391.523438 C 473.40625 391.359375 472.550781 391.949219 472.386719 392.847656 L 470.121094 405.066406 C 469.953125 405.960938 470.542969 406.820312 471.4375 406.984375 C 471.539062 407.007812 471.640625 407.011719 471.742188 407.011719 C 472.523438 407.011719 473.210938 406.457031 473.359375 405.664062 L 475.625 393.445312 C 475.789062 392.546875 475.195312 391.691406 474.304688 391.523438 Z M 485.914062 377.484375 C 483.878906 376.09375 481.671875 374.953125 479.363281 374.101562 C 478.515625 373.785156 477.566406 374.222656 477.246094 375.074219 C 476.933594 375.925781 477.367188 376.875 478.21875 377.191406 C 480.277344 377.957031 482.246094 378.96875 484.058594 380.210938 C 484.34375 380.402344 484.664062 380.496094 484.984375 380.496094 C 485.511719 380.496094 486.027344 380.242188 486.347656 379.773438 C 486.859375 379.027344 486.660156 378 485.914062 377.484375 Z M 456.742188 388.207031 C 456.585938 387.308594 455.734375 386.710938 454.835938 386.863281 C 453.941406 387.015625 453.34375 387.871094 453.496094 388.765625 C 454.058594 392.003906 455.710938 394.992188 458.164062 397.183594 C 458.476562 397.464844 458.867188 397.601562 459.257812 397.601562 C 459.710938 397.601562 460.160156 397.414062 460.492188 397.050781 C 461.09375 396.375 461.035156 395.328125 460.359375 394.722656 C 458.457031 393.027344 457.167969 390.714844 456.742188 388.207031 Z M 448.925781 423.886719 C 449.5625 423.886719 450.167969 423.511719 450.4375 422.890625 L 452.210938 418.785156 C 452.570312 417.949219 452.1875 416.980469 451.351562 416.617188 C 450.515625 416.253906 449.546875 416.640625 449.183594 417.476562 L 447.414062 421.582031 C 447.050781 422.417969 447.4375 423.386719 448.273438 423.75 C 448.488281 423.847656 448.707031 423.886719 448.925781 423.886719 Z M 453.929688 316.210938 C 454.226562 316.753906 454.792969 317.066406 455.375 317.066406 C 455.644531 317.066406 455.914062 317.003906 456.167969 316.863281 C 456.964844 316.429688 457.257812 315.421875 456.824219 314.625 C 455.695312 312.570312 454.390625 310.601562 452.941406 308.761719 C 452.375 308.046875 451.339844 307.925781 450.625 308.492188 C 449.910156 309.058594 449.789062 310.09375 450.355469 310.808594 C 451.691406 312.5 452.898438 314.316406 453.929688 316.210938 Z M 411.117188 453.089844 C 410.019531 452.234375 409.082031 451.203125 408.332031 450.03125 C 407.84375 449.265625 406.828125 449.039062 406.058594 449.53125 C 405.292969 450.019531 405.066406 451.039062 405.554688 451.808594 C 406.507812 453.296875 407.695312 454.601562 409.082031 455.6875 C 409.382812 455.925781 409.742188 456.042969 410.09375 456.042969 C 410.582031 456.042969 411.066406 455.828125 411.390625 455.410156 C 411.957031 454.6875 411.832031 453.652344 411.117188 453.089844 Z M 411.117188 453.089844 " fill-opacity="1" fill-rule="nonzero"/><path fill="#e3a575" d="M 397.433594 350.03125 C 397.390625 350.058594 397.351562 350.089844 397.308594 350.121094 C 398.5 347.90625 400.097656 346.179688 401.964844 345.109375 C 403.363281 344.3125 405.023438 343.816406 406.625 343.34375 C 412.027344 341.738281 417.59375 340.085938 423.195312 340.085938 C 423.890625 340.085938 424.582031 340.113281 425.277344 340.164062 C 430.214844 340.542969 434.816406 342.667969 437.585938 345.84375 C 438.46875 346.851562 439.160156 347.957031 439.65625 349.132812 C 440.671875 351.570312 440.871094 354.285156 441.078125 357.160156 C 441.144531 358.078125 441.21875 359.023438 441.308594 359.960938 C 441.441406 361.210938 441.625 362.476562 441.800781 363.703125 C 442.421875 368 443.007812 372.058594 441.558594 375.679688 C 440.410156 378.550781 438.148438 380.738281 435.328125 382.742188 C 437.421875 377.941406 438.214844 372.199219 437.734375 365.242188 C 437.539062 362.332031 437.097656 358.96875 435.359375 356.105469 C 434.359375 354.460938 432.917969 352.941406 430.824219 351.339844 C 421.96875 344.566406 406.683594 343.964844 397.433594 350.03125 Z M 429.359375 471.355469 C 429.8125 479.128906 430.1875 486.945312 430.472656 494.757812 C 432.699219 494.617188 435.65625 494.414062 436.476562 494.328125 C 436.773438 493.996094 437.195312 493.789062 437.675781 493.78125 C 437.679688 493.78125 437.6875 493.78125 437.699219 493.78125 C 437.808594 493.78125 437.910156 493.792969 438.015625 493.816406 C 438.152344 493.753906 438.292969 493.6875 438.433594 493.621094 C 439.351562 493.191406 440.457031 492.675781 441.695312 492.609375 C 441.941406 485.777344 442.328125 478.441406 442.675781 471.882812 C 442.773438 469.960938 442.871094 468.121094 442.960938 466.382812 C 438.511719 468.269531 433.96875 469.9375 429.359375 471.355469 Z M 425.386719 465.273438 C 423.847656 465.0625 422.25 464.847656 420.710938 464.671875 C 417.054688 464.246094 413.910156 465.078125 410.582031 465.964844 C 408.433594 466.539062 406.207031 467.125 403.730469 467.414062 C 403.042969 467.496094 402.351562 467.535156 401.652344 467.535156 C 398.277344 467.535156 394.765625 466.597656 391.402344 464.789062 C 387.101562 462.476562 383.5 458.96875 380.976562 454.664062 C 380.386719 453.660156 379.941406 452.707031 379.550781 451.871094 C 378.351562 449.308594 377.753906 448.027344 374.597656 447.578125 C 370.832031 446.972656 366.910156 446.859375 363.125 446.75 C 352.695312 446.449219 341.910156 446.140625 334.425781 435.566406 C 326.925781 425.054688 325.707031 411.230469 330.796875 394.476562 C 331.625 391.71875 333.003906 384.804688 327.894531 380.332031 C 327.867188 380.308594 327.839844 380.28125 327.8125 380.253906 C 318.152344 370.582031 308.929688 358.710938 313.828125 344.003906 C 316.675781 336.15625 322.121094 330.222656 327.382812 324.480469 C 330.816406 320.738281 334.363281 316.863281 337.222656 312.46875 C 339.101562 309.511719 339.089844 306.117188 339.078125 302.515625 C 339.074219 300.898438 339.070312 299.253906 339.234375 297.589844 C 327.601562 308.089844 319.238281 321.007812 314.242188 336.28125 C 308.292969 354.46875 307.242188 375.222656 311.210938 396.308594 C 316.996094 427.042969 332.804688 451.65625 354.585938 463.839844 C 360.730469 467.273438 367.464844 469.808594 374.636719 471.425781 C 374.535156 469.757812 374.4375 468.085938 374.332031 466.421875 C 374.277344 465.515625 374.964844 464.730469 375.875 464.671875 C 376.785156 464.621094 377.5625 465.304688 377.621094 466.214844 C 377.632812 466.371094 377.636719 466.53125 377.648438 466.691406 C 378.230469 476 378.695312 485.382812 379.039062 494.757812 C 381.246094 494.617188 384.078125 494.425781 384.878906 494.335938 C 385.175781 494.007812 385.601562 493.796875 386.078125 493.792969 C 386.085938 493.792969 386.089844 493.792969 386.09375 493.792969 C 386.207031 493.792969 386.308594 493.804688 386.414062 493.824219 C 386.550781 493.765625 386.691406 493.699219 386.832031 493.632812 C 387.65625 493.25 388.640625 492.792969 389.730469 492.652344 C 389.742188 484.34375 389.945312 476.207031 390.144531 469.808594 C 390.148438 469.703125 390.160156 469.597656 390.179688 469.5 C 390.351562 468.738281 391.039062 468.183594 391.835938 468.210938 C 392.742188 468.238281 393.457031 468.996094 393.429688 469.90625 C 393.398438 471.066406 393.359375 472.300781 393.328125 473.566406 C 403.375 473.683594 413.9375 472.273438 424.699219 469.296875 C 427.894531 468.410156 431.058594 467.394531 434.183594 466.285156 C 431.226562 466.054688 428.285156 465.664062 425.386719 465.273438 Z M 425.386719 465.273438 " fill-opacity="1" fill-rule="nonzero"/><path fill="#f4c524" d="M 343.632812 360.648438 C 343.539062 359.746094 344.195312 358.929688 345.09375 358.835938 L 354.757812 357.8125 C 355.664062 357.71875 356.472656 358.375 356.566406 359.277344 C 356.660156 360.179688 356.003906 360.996094 355.105469 361.089844 L 345.441406 362.113281 C 345.382812 362.117188 345.328125 362.125 345.265625 362.125 C 344.4375 362.125 343.722656 361.496094 343.632812 360.648438 Z M 466.605469 323.929688 C 466.628906 323.929688 466.65625 323.929688 466.683594 323.929688 C 467.589844 323.894531 468.292969 323.121094 468.253906 322.207031 C 468.183594 320.550781 468.550781 318.902344 469.328125 317.4375 C 469.75 316.632812 469.449219 315.636719 468.644531 315.207031 C 467.84375 314.777344 466.847656 315.085938 466.417969 315.890625 C 465.367188 317.878906 464.867188 320.113281 464.964844 322.351562 C 465 323.238281 465.726562 323.929688 466.605469 323.929688 Z M 372.226562 353.863281 C 373.117188 353.691406 373.707031 352.828125 373.535156 351.929688 C 373.125 349.789062 373.132812 347.519531 373.570312 345.378906 C 373.75 344.488281 373.171875 343.617188 372.28125 343.4375 C 371.390625 343.253906 370.523438 343.832031 370.339844 344.726562 C 369.824219 347.285156 369.808594 349.988281 370.296875 352.550781 C 370.449219 353.339844 371.136719 353.890625 371.914062 353.890625 C 372.019531 353.890625 372.121094 353.882812 372.226562 353.863281 Z M 382.757812 417.554688 C 382.605469 416.65625 381.75 416.054688 380.855469 416.214844 C 377.925781 416.726562 375.066406 417.601562 372.347656 418.824219 C 371.519531 419.199219 371.148438 420.171875 371.523438 421.003906 C 371.796875 421.613281 372.398438 421.976562 373.023438 421.976562 C 373.25 421.976562 373.480469 421.933594 373.699219 421.835938 C 376.164062 420.730469 378.761719 419.929688 381.421875 419.460938 C 382.3125 419.304688 382.910156 418.449219 382.757812 417.554688 Z M 381.367188 392.988281 C 381.664062 392.988281 381.972656 392.90625 382.242188 392.734375 C 383.011719 392.25 383.242188 391.234375 382.757812 390.460938 C 382.3125 389.753906 382.273438 388.777344 382.667969 388.042969 C 383.09375 387.238281 382.785156 386.242188 381.980469 385.8125 C 381.179688 385.386719 380.183594 385.695312 379.753906 386.5 C 378.820312 388.273438 378.902344 390.519531 379.96875 392.214844 C 380.285156 392.714844 380.816406 392.988281 381.367188 392.988281 Z M 355.382812 400.59375 C 352.214844 400.320312 349.023438 399.875 345.902344 399.269531 C 345.011719 399.097656 344.144531 399.675781 343.972656 400.574219 C 343.796875 401.464844 344.378906 402.335938 345.277344 402.503906 C 348.511719 403.132812 351.820312 403.59375 355.105469 403.882812 C 355.152344 403.886719 355.195312 403.886719 355.246094 403.886719 C 356.09375 403.886719 356.8125 403.238281 356.886719 402.378906 C 356.957031 401.46875 356.285156 400.671875 355.382812 400.59375 Z M 436.277344 416 C 436.378906 416.023438 436.480469 416.027344 436.582031 416.027344 C 437.363281 416.027344 438.050781 415.472656 438.199219 414.679688 C 438.507812 413.019531 439.363281 411.480469 440.613281 410.34375 C 441.28125 409.730469 441.332031 408.6875 440.722656 408.015625 C 440.113281 407.34375 439.074219 407.292969 438.394531 407.90625 C 436.621094 409.523438 435.398438 411.714844 434.960938 414.078125 C 434.792969 414.972656 435.386719 415.832031 436.277344 416 Z M 430.179688 441.300781 C 430.03125 440.40625 429.183594 439.800781 428.289062 439.941406 C 425.414062 440.421875 422.472656 440.621094 419.554688 440.539062 C 419.539062 440.539062 419.523438 440.539062 419.507812 440.539062 C 418.621094 440.539062 417.890625 441.242188 417.863281 442.140625 C 417.835938 443.046875 418.550781 443.804688 419.464844 443.835938 C 419.929688 443.84375 420.390625 443.855469 420.859375 443.855469 C 423.527344 443.855469 426.199219 443.636719 428.828125 443.199219 C 429.722656 443.046875 430.328125 442.199219 430.179688 441.300781 Z M 472.207031 421.527344 C 469.007812 422.183594 465.984375 423.390625 463.210938 425.121094 C 462.441406 425.601562 462.207031 426.617188 462.683594 427.394531 C 463 427.894531 463.53125 428.171875 464.082031 428.171875 C 464.378906 428.171875 464.679688 428.085938 464.949219 427.921875 C 467.386719 426.402344 470.054688 425.335938 472.863281 424.761719 C 473.753906 424.582031 474.324219 423.710938 474.144531 422.820312 C 473.972656 421.921875 473.101562 421.351562 472.207031 421.527344 Z M 491.824219 360 C 490.921875 359.855469 490.085938 360.476562 489.941406 361.375 C 489.589844 363.652344 489.480469 365.976562 489.613281 368.28125 C 489.664062 369.15625 490.386719 369.835938 491.257812 369.835938 C 491.289062 369.835938 491.324219 369.835938 491.355469 369.828125 C 492.261719 369.773438 492.957031 368.996094 492.902344 368.089844 C 492.78125 366.019531 492.878906 363.929688 493.199219 361.882812 C 493.335938 360.976562 492.71875 360.136719 491.824219 360 Z M 466.183594 374.59375 C 466.304688 374.621094 466.417969 374.632812 466.539062 374.632812 C 467.296875 374.632812 467.976562 374.109375 468.144531 373.339844 C 468.484375 371.773438 469.523438 370.363281 470.917969 369.5625 C 471.703125 369.113281 471.976562 368.105469 471.527344 367.3125 C 471.074219 366.527344 470.070312 366.25 469.277344 366.703125 C 467.09375 367.957031 465.46875 370.167969 464.929688 372.628906 C 464.730469 373.523438 465.292969 374.398438 466.183594 374.59375 Z M 359.421875 297.230469 L 353.953125 303.332031 C 353.347656 304.007812 353.40625 305.046875 354.082031 305.660156 C 354.394531 305.9375 354.789062 306.078125 355.179688 306.078125 C 355.632812 306.078125 356.082031 305.890625 356.40625 305.527344 L 361.871094 299.429688 C 362.476562 298.75 362.421875 297.710938 361.746094 297.101562 C 361.070312 296.496094 360.03125 296.554688 359.421875 297.230469 Z M 449.289062 292.195312 C 450.929688 292.929688 452.472656 293.863281 453.890625 294.96875 C 454.195312 295.207031 454.550781 295.324219 454.910156 295.324219 C 455.398438 295.324219 455.882812 295.109375 456.207031 294.6875 C 456.769531 293.972656 456.640625 292.9375 455.925781 292.378906 C 454.296875 291.101562 452.523438 290.027344 450.636719 289.183594 C 449.804688 288.816406 448.832031 289.183594 448.464844 290.015625 C 448.089844 290.851562 448.457031 291.828125 449.289062 292.195312 Z M 488.269531 400.015625 C 487.761719 399.269531 486.738281 399.070312 485.984375 399.589844 C 485.234375 400.101562 485.042969 401.128906 485.554688 401.878906 L 487.953125 405.378906 C 488.269531 405.847656 488.789062 406.09375 489.308594 406.09375 C 489.628906 406.09375 489.953125 406 490.238281 405.808594 C 490.988281 405.296875 491.179688 404.265625 490.667969 403.519531 Z M 424.027344 425.984375 C 424.347656 426.445312 424.863281 426.695312 425.386719 426.695312 C 425.710938 426.695312 426.035156 426.601562 426.320312 426.402344 C 427.066406 425.886719 427.253906 424.855469 426.738281 424.109375 C 425.253906 421.957031 423.554688 419.941406 421.679688 418.121094 C 421.03125 417.480469 419.984375 417.496094 419.351562 418.148438 C 418.722656 418.796875 418.730469 419.84375 419.378906 420.476562 C 421.097656 422.152344 422.664062 424.007812 424.027344 425.984375 Z M 456.640625 350.519531 C 456.921875 350.707031 457.234375 350.796875 457.546875 350.796875 C 458.082031 350.796875 458.605469 350.539062 458.921875 350.058594 C 460.289062 348.003906 461.480469 345.816406 462.46875 343.558594 C 462.839844 342.726562 462.460938 341.753906 461.625 341.382812 C 460.789062 341.015625 459.820312 341.394531 459.453125 342.230469 C 458.53125 344.316406 457.433594 346.34375 456.175781 348.238281 C 455.671875 348.992188 455.882812 350.015625 456.640625 350.519531 Z M 384.75 344.820312 C 385.089844 344.820312 385.4375 344.714844 385.734375 344.496094 L 392.429688 339.492188 C 393.160156 338.945312 393.308594 337.917969 392.765625 337.183594 C 392.222656 336.453125 391.1875 336.304688 390.460938 336.847656 L 383.765625 341.851562 C 383.03125 342.398438 382.882812 343.433594 383.429688 344.160156 C 383.746094 344.585938 384.242188 344.820312 384.75 344.820312 Z M 382.40625 531.019531 C 381.488281 530.789062 380.433594 530.585938 379.183594 530.378906 C 377.898438 530.164062 376.792969 529.726562 375.863281 529.09375 C 375.503906 532.230469 374.898438 535.351562 374.03125 538.429688 C 376.011719 538.414062 377.980469 538.527344 379.898438 538.644531 C 380.730469 538.695312 381.574219 538.742188 382.421875 538.78125 C 382.046875 536.195312 382.054688 533.585938 382.40625 531.019531 Z M 392.351562 522.976562 C 392.859375 522.453125 393.453125 522.007812 394.097656 521.660156 C 393.695312 520.988281 393.355469 520.3125 393.050781 519.632812 C 392.171875 519.6875 391.292969 520.183594 390.796875 520.910156 C 390.792969 520.921875 390.78125 520.933594 390.769531 520.945312 C 391.1875 521.582031 391.660156 522.203125 392.222656 522.832031 C 392.265625 522.875 392.308594 522.925781 392.351562 522.976562 Z M 401.46875 530.136719 C 400.933594 529.707031 400.394531 529.25 399.859375 528.75 C 399.28125 528.917969 398.75 529.214844 398.296875 529.617188 C 398.765625 530.125 399.238281 530.621094 399.714844 531.109375 C 400.277344 530.75 400.867188 530.421875 401.46875 530.136719 Z M 411.445312 535.574219 C 410.828125 535.109375 410.082031 534.757812 409.285156 534.390625 L 405.257812 532.511719 C 405.171875 532.472656 405.089844 532.425781 405 532.386719 C 401.558594 533.164062 398.546875 535.734375 397.1875 538.992188 C 397.339844 539.011719 397.496094 539.035156 397.648438 539.050781 C 401.597656 539.503906 409.433594 539.683594 413.4375 539.242188 C 413.335938 537.820312 412.601562 536.441406 411.445312 535.574219 Z M 396.082031 527.183594 C 396.5 526.8125 396.957031 526.484375 397.445312 526.210938 C 396.957031 525.636719 396.472656 525.039062 395.992188 524.40625 C 395.4375 524.625 394.9375 524.988281 394.558594 525.453125 C 394.589844 525.488281 394.628906 525.535156 394.667969 525.574219 C 395.128906 526.105469 395.601562 526.644531 396.082031 527.183594 Z M 391.59375 497.785156 C 391.566406 496.5625 391.445312 496.351562 391.199219 496.1875 C 390.414062 495.664062 389.757812 495.890625 388.21875 496.605469 C 388.070312 496.675781 387.914062 496.742188 387.761719 496.816406 C 387.773438 497.652344 387.789062 498.488281 387.804688 499.328125 C 388.089844 499.367188 388.382812 499.417969 388.675781 499.496094 C 389.753906 499.777344 390.710938 500.28125 391.566406 500.746094 C 391.601562 499.757812 391.617188 498.769531 391.59375 497.785156 Z M 389.78125 525.03125 C 385.132812 519.875 384.933594 514.144531 384.75 508.597656 C 384.730469 508.136719 384.722656 507.667969 384.710938 507.199219 C 383.320312 506.425781 382.40625 505.21875 382.261719 503.859375 C 382.09375 502.257812 383.003906 500.660156 384.523438 499.851562 C 384.507812 499.121094 384.496094 498.394531 384.484375 497.667969 C 383.632812 497.738281 382.363281 497.832031 380.652344 497.941406 C 379.558594 498.015625 378.703125 498.070312 378.046875 498.109375 C 378.34375 502.363281 378.386719 506.898438 377.390625 511.585938 C 377.285156 512.078125 377.164062 512.605469 377.039062 513.160156 C 376.1875 516.9375 374.894531 522.644531 376.746094 525.40625 C 377.367188 526.332031 378.34375 526.894531 379.726562 527.128906 C 387.683594 528.46875 389.449219 530.070312 394.191406 536.953125 L 394.257812 537.046875 C 394.292969 537.101562 394.332031 537.15625 394.371094 537.214844 C 395.058594 535.738281 396.011719 534.378906 397.152344 533.210938 C 395.425781 531.421875 393.78125 529.566406 392.1875 527.757812 C 391.390625 526.84375 390.589844 525.9375 389.78125 525.03125 Z M 388.148438 511.015625 C 389.132812 510.667969 390.160156 510.449219 391.203125 510.359375 C 391.1875 509.484375 391.191406 508.609375 391.21875 507.734375 C 390.355469 508 389.457031 508.148438 388.546875 508.148438 C 388.371094 508.148438 388.195312 508.136719 388.027344 508.125 C 388.03125 508.246094 388.03125 508.367188 388.035156 508.488281 C 388.0625 509.375 388.101562 510.210938 388.148438 511.015625 Z M 391.023438 504.289062 C 390.738281 504.085938 390.460938 503.898438 390.191406 503.75 C 389.390625 503.316406 388.636719 502.902344 387.871094 502.699219 C 387.886719 503.402344 387.910156 504.105469 387.933594 504.8125 C 388.976562 504.925781 390.066406 504.734375 391.023438 504.289062 Z M 391.964844 516.472656 C 391.726562 515.535156 391.550781 514.59375 391.429688 513.644531 C 390.421875 513.738281 389.429688 513.992188 388.507812 514.410156 C 388.5 514.417969 388.480469 514.417969 388.472656 514.421875 C 388.640625 515.617188 388.890625 516.734375 389.246094 517.789062 C 390.03125 517.144531 390.96875 516.6875 391.964844 516.472656 Z M 434.007812 531.019531 C 433.089844 530.789062 432.035156 530.585938 430.785156 530.378906 C 429.5 530.164062 428.394531 529.726562 427.464844 529.09375 C 427.105469 532.238281 426.5 535.351562 425.632812 538.429688 C 427.617188 538.414062 429.582031 538.527344 431.5 538.644531 C 432.332031 538.695312 433.175781 538.742188 434.023438 538.78125 C 433.648438 536.195312 433.65625 533.585938 434.007812 531.019531 Z M 463.046875 535.574219 C 462.433594 535.109375 461.679688 534.757812 460.886719 534.390625 L 456.859375 532.511719 C 456.773438 532.472656 456.691406 532.425781 456.601562 532.386719 C 453.160156 533.164062 450.140625 535.734375 448.789062 538.992188 C 448.941406 539.011719 449.097656 539.035156 449.25 539.050781 C 453.199219 539.503906 461.039062 539.683594 465.03125 539.242188 C 464.9375 537.820312 464.203125 536.441406 463.046875 535.574219 Z M 447.683594 527.183594 C 448.101562 526.8125 448.558594 526.484375 449.046875 526.210938 C 448.558594 525.636719 448.074219 525.039062 447.59375 524.40625 C 447.039062 524.625 446.539062 524.988281 446.160156 525.453125 C 446.195312 525.488281 446.230469 525.527344 446.265625 525.566406 C 446.730469 526.105469 447.207031 526.644531 447.683594 527.183594 Z M 451.320312 531.113281 C 451.878906 530.746094 452.46875 530.421875 453.074219 530.136719 C 452.527344 529.707031 451.996094 529.25 451.460938 528.75 C 450.882812 528.917969 450.351562 529.214844 449.898438 529.617188 C 450.367188 530.128906 450.839844 530.625 451.320312 531.113281 Z M 442.40625 520.910156 C 442.398438 520.921875 442.386719 520.933594 442.378906 520.945312 C 442.796875 521.582031 443.269531 522.203125 443.828125 522.832031 C 443.871094 522.882812 443.917969 522.929688 443.960938 522.980469 C 444.464844 522.457031 445.0625 522.011719 445.703125 521.664062 C 445.300781 520.992188 444.960938 520.316406 444.660156 519.640625 C 443.78125 519.6875 442.898438 520.183594 442.40625 520.910156 Z M 439.363281 496.820312 C 439.375 497.65625 439.390625 498.492188 439.40625 499.335938 C 439.695312 499.375 439.984375 499.421875 440.277344 499.5 C 441.355469 499.78125 442.3125 500.289062 443.167969 500.75 C 443.203125 499.757812 443.222656 498.769531 443.203125 497.785156 C 443.175781 496.5625 443.054688 496.351562 442.804688 496.1875 C 442.019531 495.664062 441.367188 495.890625 439.824219 496.605469 C 439.675781 496.675781 439.519531 496.75 439.363281 496.820312 Z M 441.382812 525.03125 C 436.734375 519.875 436.539062 514.144531 436.351562 508.597656 C 436.332031 508.136719 436.324219 507.667969 436.3125 507.199219 C 434.921875 506.425781 434.007812 505.21875 433.863281 503.859375 C 433.695312 502.257812 434.605469 500.660156 436.125 499.851562 C 436.109375 499.121094 436.097656 498.394531 436.085938 497.667969 C 435.234375 497.738281 433.964844 497.832031 432.253906 497.941406 C 431.160156 498.015625 430.308594 498.070312 429.648438 498.109375 C 429.945312 502.363281 429.988281 506.898438 428.992188 511.585938 C 428.886719 512.078125 428.765625 512.605469 428.644531 513.160156 C 427.792969 516.9375 426.5 522.644531 428.355469 525.40625 C 428.976562 526.332031 429.949219 526.894531 431.335938 527.128906 C 439.292969 528.46875 441.058594 530.070312 445.796875 536.953125 L 445.863281 537.046875 C 445.902344 537.101562 445.941406 537.15625 445.980469 537.214844 C 446.667969 535.738281 447.617188 534.378906 448.761719 533.210938 C 447.027344 531.421875 445.386719 529.5625 443.796875 527.753906 C 442.988281 526.839844 442.191406 525.929688 441.382812 525.03125 Z M 439.75 511.015625 C 440.734375 510.667969 441.761719 510.449219 442.804688 510.359375 C 442.789062 509.484375 442.796875 508.609375 442.824219 507.734375 C 441.960938 508 441.058594 508.148438 440.148438 508.148438 C 439.972656 508.148438 439.796875 508.136719 439.628906 508.125 C 439.632812 508.246094 439.632812 508.367188 439.640625 508.488281 C 439.671875 509.375 439.703125 510.210938 439.75 511.015625 Z M 442.625 504.289062 C 442.339844 504.085938 442.0625 503.898438 441.792969 503.75 C 440.992188 503.316406 440.238281 502.902344 439.472656 502.699219 C 439.488281 503.402344 439.511719 504.105469 439.535156 504.8125 C 440.585938 504.925781 441.667969 504.734375 442.625 504.289062 Z M 440.113281 514.410156 C 440.101562 514.417969 440.085938 514.417969 440.074219 514.421875 C 440.242188 515.617188 440.492188 516.734375 440.847656 517.789062 C 441.636719 517.140625 442.570312 516.683594 443.566406 516.472656 C 443.328125 515.535156 443.148438 514.59375 443.03125 513.644531 C 442.023438 513.738281 441.03125 513.992188 440.113281 514.410156 Z M 440.113281 514.410156 " fill-opacity="1" fill-rule="nonzero"/><g clip-path="url(#16b736352c)"><path fill="#000000" d="M 136.460938 420.332031 C 134.144531 439.890625 132.269531 441.765625 112.710938 444.078125 C 112.753906 444.085938 112.792969 444.089844 112.832031 444.09375 C 132.277344 446.402344 134.148438 448.3125 136.460938 467.828125 C 138.773438 448.269531 140.652344 446.394531 160.207031 444.078125 C 140.652344 441.765625 138.773438 439.890625 136.460938 420.332031 Z M 136.460938 420.332031 " fill-opacity="1" fill-rule="nonzero"/></g><g fill="#000000" fill-opacity="1"><g transform="translate(231.838574, 239.061248)"><g><path d="M 7.019531 -18.472656 L -1.335938 -28.703125 L 20.136719 -46.238281 L 14.308594 -53.375 L -7.160156 -35.839844 L -14.847656 -45.25 L 8.519531 -64.332031 L 2.332031 -71.910156 L -30.632812 -44.988281 L 3.664062 -2.992188 L 36.816406 -30.066406 L 30.578125 -37.710938 Z M 7.019531 -18.472656 "/></g></g></g><g fill="#000000" fill-opacity="1"><g transform="translate(267.851401, 208.338184)"><g><path d="M 41.9375 -21.320312 L 53.058594 -26.972656 L 11.480469 -66.660156 L -5.382812 -58.089844 L 2.179688 -1.109375 L 13.300781 -6.761719 L 11.765625 -18.421875 L 33.425781 -29.429688 Z M 10.421875 -28.4375 L 6.925781 -54.742188 L 26.121094 -36.421875 Z M 10.421875 -28.4375 "/></g></g></g><g fill="#000000" fill-opacity="1"><g transform="translate(319.030095, 182.28571)"><g><path d="M 35.65625 -65.183594 L -10.929688 -53.175781 L -8.484375 -43.703125 L 8.804688 -48.160156 L 19.898438 -5.128906 L 31.898438 -8.222656 L 20.804688 -51.253906 L 38.097656 -55.710938 Z M 35.65625 -65.183594 "/></g></g></g><g fill="#000000" fill-opacity="1"><g transform="translate(366.729232, 169.559117)"><g><path d="M 48.019531 -56.695312 L -0.0273438 -54.289062 L 0.460938 -44.515625 L 18.296875 -45.410156 L 20.519531 -1.027344 L 32.898438 -1.648438 L 30.675781 -46.03125 L 48.507812 -46.925781 Z M 48.019531 -56.695312 "/></g></g></g><g fill="#000000" fill-opacity="1"><g transform="translate(415.672205, 165.992113)"><g><path d="M 31.566406 6.921875 C 52.050781 10.496094 62.007812 -1.503906 64.574219 -16.203125 C 67.101562 -30.660156 61.855469 -45.644531 41.375 -49.222656 C 20.890625 -52.800781 10.8125 -40.574219 8.273438 -26.035156 C 5.691406 -11.257812 11.085938 3.34375 31.566406 6.921875 Z M 21.042969 -23.804688 C 23.105469 -35.613281 27.90625 -41.3125 39.632812 -39.261719 C 51.359375 -37.214844 53.949219 -30.226562 51.886719 -18.417969 C 49.851562 -6.773438 45.046875 -1.070312 33.320312 -3.121094 C 21.59375 -5.167969 19.007812 -12.15625 21.042969 -23.804688 Z M 21.042969 -23.804688 "/></g></g></g><g fill="#000000" fill-opacity="1"><g transform="translate(474.524899, 175.666174)"><g><path d="M 26.429688 13.214844 C 36.941406 17.867188 44.265625 15.222656 48.886719 10.222656 L 44.660156 19.765625 L 54.351562 24.058594 L 66.035156 -2.335938 L 37.554688 -14.941406 L 34.289062 -7.5625 L 51.957031 0.261719 C 48.324219 6.050781 42.691406 9.710938 32.851562 5.355469 C 22.859375 0.933594 21.214844 -6.835938 26.167969 -18.019531 C 31.378906 -29.800781 38.636719 -33.097656 48.550781 -28.710938 C 56.828125 -25.046875 59.304688 -19.761719 57.464844 -13.796875 L 68.949219 -8.714844 C 72.707031 -19.625 69.105469 -30.222656 52.554688 -37.550781 C 33.839844 -45.832031 20.746094 -37.808594 14.34375 -23.34375 C 7.976562 -8.953125 10.101562 5.988281 26.429688 13.214844 Z M 26.429688 13.214844 "/></g></g></g><g fill="#000000" fill-opacity="1"><g transform="translate(529.30211, 199.260266)"><g><path d="M 24.648438 20.902344 C 41.066406 33.660156 55.488281 27.722656 64.640625 15.941406 C 73.644531 4.351562 76.03125 -11.347656 59.613281 -24.105469 C 43.195312 -36.859375 28.558594 -30.78125 19.503906 -19.125 C 10.300781 -7.277344 8.226562 8.148438 24.648438 20.902344 Z M 29.742188 -11.171875 C 37.097656 -20.636719 44.007812 -23.421875 53.410156 -16.121094 C 62.8125 -8.816406 61.820312 -1.429688 54.46875 8.035156 C 47.214844 17.371094 40.300781 20.15625 30.898438 12.855469 C 21.5 5.550781 22.488281 -1.835938 29.742188 -11.171875 Z M 29.742188 -11.171875 "/></g></g></g><g fill="#000000" fill-opacity="1"><g transform="translate(151.247326, 539.38811)"><g><path d="M 0.53125 0.90625 L 26.265625 -3.5625 L 27.828125 -0.859375 L 11.125 19.21875 L 9.546875 16.515625 L 13.890625 11.421875 L 8.65625 2.390625 L 2.0625 3.578125 Z M 11.15625 1.953125 L 15.515625 9.484375 L 23.828125 -0.359375 Z M 11.15625 1.953125 "/></g></g></g><g fill="#000000" fill-opacity="1"><g transform="translate(175.181914, 577.276064)"><g><path d="M 1.625 2.015625 L 20.75 -13.328125 L 25.78125 -7.046875 C 26.976562 -5.546875 27.71875 -4.113281 28 -2.75 C 28.28125 -1.394531 28.191406 -0.148438 27.734375 0.984375 C 27.273438 2.117188 26.515625 3.109375 25.453125 3.953125 C 24.421875 4.785156 23.300781 5.3125 22.09375 5.53125 C 20.882812 5.75 19.640625 5.578125 18.359375 5.015625 C 17.085938 4.453125 15.84375 3.414062 14.625 1.90625 L 11.4375 -2.078125 L 3.46875 4.3125 Z M 13.375 -3.640625 L 16.53125 0.296875 C 17.75 1.828125 18.941406 2.65625 20.109375 2.78125 C 21.285156 2.90625 22.4375 2.515625 23.5625 1.609375 C 24.707031 0.691406 25.34375 -0.347656 25.46875 -1.515625 C 25.59375 -2.679688 25.046875 -4.03125 23.828125 -5.5625 L 20.671875 -9.5 Z M 13.375 -3.640625 "/></g></g></g><g fill="#000000" fill-opacity="1"><g transform="translate(202.541168, 608.86297)"><g><path d="M 1.90625 1.765625 L 18.59375 -16.203125 L 24.484375 -10.734375 C 25.890625 -9.421875 26.828125 -8.109375 27.296875 -6.796875 C 27.773438 -5.492188 27.867188 -4.25 27.578125 -3.0625 C 27.285156 -1.875 26.679688 -0.785156 25.765625 0.203125 C 24.859375 1.179688 23.820312 1.863281 22.65625 2.25 C 21.5 2.644531 20.242188 2.65625 18.890625 2.28125 C 17.546875 1.914062 16.164062 1.070312 14.75 -0.25 L 11 -3.71875 L 4.046875 3.765625 Z M 12.6875 -5.546875 L 16.390625 -2.109375 C 17.828125 -0.773438 19.128906 -0.128906 20.296875 -0.171875 C 21.472656 -0.222656 22.554688 -0.78125 23.546875 -1.84375 C 24.546875 -2.914062 25.023438 -4.035156 24.984375 -5.203125 C 24.941406 -6.378906 24.203125 -7.632812 22.765625 -8.96875 L 19.0625 -12.40625 Z M 12.6875 -5.546875 "/></g></g></g><g fill="#000000" fill-opacity="1"><g transform="translate(234.136937, 635.892017)"><g/></g></g><g fill="#000000" fill-opacity="1"><g transform="translate(259.609577, 653.017399)"><g><path d="M 2.296875 1.21875 L 13.796875 -20.4375 L 20.4375 -16.90625 C 24.25 -14.882812 26.539062 -12.421875 27.3125 -9.515625 C 28.082031 -6.617188 27.570312 -3.484375 25.78125 -0.109375 C 24.019531 3.210938 21.722656 5.359375 18.890625 6.328125 C 16.066406 7.296875 12.75 6.769531 8.9375 4.75 Z M 6.046875 0.421875 L 10.03125 2.546875 C 12.132812 3.660156 13.988281 4.203125 15.59375 4.171875 C 17.207031 4.148438 18.625 3.640625 19.84375 2.640625 C 21.0625 1.640625 22.144531 0.25 23.09375 -1.53125 C 24.050781 -3.34375 24.609375 -5.039062 24.765625 -6.625 C 24.921875 -8.207031 24.5625 -9.679688 23.6875 -11.046875 C 22.8125 -12.410156 21.320312 -13.648438 19.21875 -14.765625 L 15.234375 -16.890625 Z M 6.046875 0.421875 "/></g></g></g><g fill="#000000" fill-opacity="1"><g transform="translate(301.003548, 672.941452)"><g><path d="M 2.453125 0.859375 L 10.53125 -22.28125 L 24.84375 -17.296875 L 24.046875 -15.015625 L 12.5 -19.03125 L 9.6875 -10.96875 L 20.234375 -7.296875 L 19.453125 -5.046875 L 8.90625 -8.71875 L 6.015625 -0.453125 L 17.5625 3.5625 L 16.765625 5.84375 Z M 2.453125 0.859375 "/></g></g></g><g fill="#000000" fill-opacity="1"><g transform="translate(340.479393, 685.137111)"><g><path d="M 9.8125 1.828125 L 5.25 -23.953125 L 8.390625 -23.375 L 12.0625 -0.921875 L 23.671875 -20.515625 L 26.734375 -19.9375 L 13.171875 2.46875 Z M 9.8125 1.828125 "/></g></g></g><g fill="#000000" fill-opacity="1"><g transform="translate(384.94893, 691.6507)"><g><path d="M 2.59375 0.09375 L 3.421875 -24.40625 L 18.5625 -23.90625 L 18.484375 -21.484375 L 6.28125 -21.890625 L 5.984375 -13.34375 L 17.140625 -12.96875 L 17.0625 -10.609375 L 5.90625 -10.984375 L 5.609375 -2.234375 L 17.8125 -1.828125 L 17.734375 0.59375 Z M 2.59375 0.09375 "/></g></g></g><g fill="#000000" fill-opacity="1"><g transform="translate(426.166505, 691.472829)"><g><path d="M 2.578125 -0.28125 L -0.0625 -24.65625 L 2.859375 -24.96875 L 5.25 -2.921875 L 16.609375 -4.15625 L 16.859375 -1.828125 Z M 2.578125 -0.28125 "/></g></g></g><g fill="#000000" fill-opacity="1"><g transform="translate(465.778441, 685.835663)"><g><path d="M 13.359375 -3.171875 C 11.046875 -2.546875 8.875 -2.507812 6.84375 -3.0625 C 4.820312 -3.613281 3.066406 -4.679688 1.578125 -6.265625 C 0.0976562 -7.847656 -0.960938 -9.84375 -1.609375 -12.25 C -2.265625 -14.664062 -2.347656 -16.921875 -1.859375 -19.015625 C -1.367188 -21.117188 -0.390625 -22.925781 1.078125 -24.4375 C 2.546875 -25.957031 4.4375 -27.03125 6.75 -27.65625 C 9.101562 -28.289062 11.289062 -28.320312 13.3125 -27.75 C 15.332031 -27.1875 17.078125 -26.117188 18.546875 -24.546875 C 20.015625 -22.972656 21.078125 -20.976562 21.734375 -18.5625 C 22.378906 -16.15625 22.460938 -13.894531 21.984375 -11.78125 C 21.515625 -9.675781 20.546875 -7.875 19.078125 -6.375 C 17.617188 -4.875 15.710938 -3.804688 13.359375 -3.171875 Z M 12.6875 -5.671875 C 14.425781 -6.140625 15.847656 -6.941406 16.953125 -8.078125 C 18.054688 -9.210938 18.773438 -10.609375 19.109375 -12.265625 C 19.453125 -13.921875 19.351562 -15.757812 18.8125 -17.78125 C 18.257812 -19.8125 17.421875 -21.445312 16.296875 -22.6875 C 15.179688 -23.925781 13.859375 -24.757812 12.328125 -25.1875 C 10.804688 -25.613281 9.175781 -25.59375 7.4375 -25.125 C 5.707031 -24.65625 4.285156 -23.851562 3.171875 -22.71875 C 2.066406 -21.582031 1.34375 -20.191406 1 -18.546875 C 0.65625 -16.910156 0.757812 -15.078125 1.3125 -13.046875 C 1.851562 -11.023438 2.6875 -9.382812 3.8125 -8.125 C 4.9375 -6.875 6.265625 -6.035156 7.796875 -5.609375 C 9.328125 -5.179688 10.957031 -5.203125 12.6875 -5.671875 Z M 12.6875 -5.671875 "/></g></g></g><g fill="#000000" fill-opacity="1"><g transform="translate(512.59579, 671.104374)"><g><path d="M 2.359375 -1.0625 L -7.703125 -23.421875 L -0.359375 -26.734375 C 1.390625 -27.515625 2.957031 -27.867188 4.34375 -27.796875 C 5.726562 -27.734375 6.910156 -27.332031 7.890625 -26.59375 C 8.878906 -25.863281 9.648438 -24.882812 10.203125 -23.65625 C 10.753906 -22.4375 10.984375 -21.21875 10.890625 -20 C 10.804688 -18.78125 10.328125 -17.617188 9.453125 -16.515625 C 8.585938 -15.421875 7.269531 -14.476562 5.5 -13.6875 L 0.84375 -11.578125 L 5.046875 -2.265625 Z M -0.171875 -13.84375 L 4.421875 -15.921875 C 6.210938 -16.722656 7.3125 -17.671875 7.71875 -18.765625 C 8.132812 -19.867188 8.046875 -21.082031 7.453125 -22.40625 C 6.859375 -23.738281 6.007812 -24.613281 4.90625 -25.03125 C 3.8125 -25.445312 2.367188 -25.253906 0.578125 -24.453125 L -4.015625 -22.375 Z M -0.171875 -13.84375 "/></g></g></g><g fill="#000000" fill-opacity="1"><g transform="translate(550.281692, 652.612784)"><g><path d="M 2.15625 -1.4375 L -11.40625 -21.859375 L -8.546875 -23.75 L 8.25 -14.40625 L 6.09375 -33.484375 L 8.984375 -35.390625 L 22.546875 -14.96875 L 20.09375 -13.34375 L 9.4375 -29.390625 L 11.34375 -11.734375 L 9.484375 -10.515625 L -6.03125 -19.078125 L 4.609375 -3.0625 Z M 2.15625 -1.4375 "/></g></g></g><g fill="#000000" fill-opacity="1"><g transform="translate(591.790187, 622.452223)"><g><path d="M 1.90625 -1.765625 L -14.78125 -19.71875 L -3.6875 -30.03125 L -2.03125 -28.265625 L -10.984375 -19.953125 L -5.171875 -13.6875 L 3.015625 -21.296875 L 4.625 -19.5625 L -3.5625 -11.953125 L 2.40625 -5.546875 L 11.359375 -13.859375 L 13 -12.078125 Z M 1.90625 -1.765625 "/></g></g></g><g fill="#000000" fill-opacity="1"><g transform="translate(621.042635, 593.249232)"><g><path d="M 1.609375 -2.03125 L -17.609375 -17.25 L -15.78125 -19.546875 L 7.734375 -17.59375 L -7.671875 -29.796875 L -5.84375 -32.09375 L 13.375 -16.875 L 11.546875 -14.578125 L -11.953125 -16.515625 L 3.4375 -4.328125 Z M 1.609375 -2.03125 "/></g></g></g><g fill="#000000" fill-opacity="1"><g transform="translate(647.971926, 556.343318)"><g><path d="M 4.125 -7.234375 L -15.078125 -18.171875 L -18.703125 -11.8125 L -20.796875 -13.015625 L -12.09375 -28.296875 L -10 -27.09375 L -13.625 -20.734375 L 5.578125 -9.796875 Z M 4.125 -7.234375 "/></g></g></g><g clip-path="url(#e75d88b739)"><path fill="#000000" d="M 673.535156 420.332031 C 671.222656 439.890625 669.34375 441.765625 649.789062 444.078125 C 649.828125 444.085938 649.867188 444.089844 649.910156 444.09375 C 669.351562 446.402344 671.226562 448.3125 673.535156 467.828125 C 675.851562 448.269531 677.726562 446.394531 697.285156 444.078125 C 677.726562 441.765625 675.851562 439.890625 673.535156 420.332031 Z M 673.535156 420.332031 " fill-opacity="1" fill-rule="nonzero"/></g></svg>